<svg width="113" height="27" viewBox="0 0 113 27" fill="none" xmlns="http://www.w3.org/2000/svg">
<path d="M10.8364 11.36C11.8124 11.568 12.5964 12.056 13.1884 12.824C13.7804 13.576 14.0764 14.44 14.0764 15.416C14.0764 16.824 13.5804 17.944 12.5884 18.776C11.6124 19.592 10.2444 20 8.48444 20H0.636438V3.152H8.22044C9.93244 3.152 11.2684 3.544 12.2284 4.328C13.2044 5.112 13.6924 6.176 13.6924 7.52C13.6924 8.512 13.4284 9.336 12.9004 9.992C12.3884 10.648 11.7004 11.104 10.8364 11.36ZM4.74044 9.968H7.42844C8.10044 9.968 8.61244 9.824 8.96444 9.536C9.33244 9.232 9.51644 8.792 9.51644 8.216C9.51644 7.64 9.33244 7.2 8.96444 6.896C8.61244 6.592 8.10044 6.44 7.42844 6.44H4.74044V9.968ZM7.76444 16.688C8.45244 16.688 8.98044 16.536 9.34844 16.232C9.73244 15.912 9.92444 15.456 9.92444 14.864C9.92444 14.272 9.72444 13.808 9.32444 13.472C8.94044 13.136 8.40444 12.968 7.71644 12.968H4.74044V16.688H7.76444ZM24.6168 6.464C26.1848 6.464 27.4328 6.976 28.3608 8C29.3048 9.008 29.7768 10.4 29.7768 12.176V20H25.6968V12.728C25.6968 11.832 25.4648 11.136 25.0008 10.64C24.5368 10.144 23.9128 9.896 23.1288 9.896C22.3448 9.896 21.7208 10.144 21.2568 10.64C20.7928 11.136 20.5608 11.832 20.5608 12.728V20H16.4568V6.608H20.5608V8.384C20.9768 7.792 21.5368 7.328 22.2408 6.992C22.9448 6.64 23.7368 6.464 24.6168 6.464ZM34.6686 5.216C33.9486 5.216 33.3566 5.008 32.8926 4.592C32.4446 4.16 32.2206 3.632 32.2206 3.008C32.2206 2.368 32.4446 1.84 32.8926 1.424C33.3566 0.991999 33.9486 0.775999 34.6686 0.775999C35.3726 0.775999 35.9486 0.991999 36.3966 1.424C36.8606 1.84 37.0926 2.368 37.0926 3.008C37.0926 3.632 36.8606 4.16 36.3966 4.592C35.9486 5.008 35.3726 5.216 34.6686 5.216ZM36.7326 21.728C36.7326 23.376 36.3166 24.56 35.4846 25.28C34.6526 26.016 33.4926 26.384 32.0046 26.384H30.3966V22.904H31.3806C31.8286 22.904 32.1486 22.816 32.3406 22.64C32.5326 22.464 32.6286 22.176 32.6286 21.776V6.608H36.7326V21.728Z" fill="#44546A"/>
<path d="M43.7873 8.504C44.1873 7.88 44.7393 7.376 45.4433 6.992C46.1473 6.608 46.9713 6.416 47.9153 6.416C49.0193 6.416 50.0193 6.696 50.9153 7.256C51.8113 7.816 52.5153 8.616 53.0273 9.656C53.5553 10.696 53.8193 11.904 53.8193 13.28C53.8193 14.656 53.5553 15.872 53.0273 16.928C52.5153 17.968 51.8113 18.776 50.9153 19.352C50.0193 19.912 49.0193 20.192 47.9153 20.192C46.9873 20.192 46.1633 20 45.4433 19.616C44.7393 19.232 44.1873 18.736 43.7873 18.128V26.384H39.6833V6.608H43.7873V8.504ZM49.6433 13.28C49.6433 12.256 49.3553 11.456 48.7793 10.88C48.2193 10.288 47.5233 9.992 46.6913 9.992C45.8753 9.992 45.1793 10.288 44.6033 10.88C44.0433 11.472 43.7633 12.28 43.7633 13.304C43.7633 14.328 44.0433 15.136 44.6033 15.728C45.1793 16.32 45.8753 16.616 46.6913 16.616C47.5073 16.616 48.2033 16.32 48.7793 15.728C49.3553 15.12 49.6433 14.304 49.6433 13.28ZM55.1564 13.304C55.1564 11.912 55.4364 10.696 55.9964 9.656C56.5724 8.616 57.3644 7.816 58.3724 7.256C59.3964 6.696 60.5644 6.416 61.8764 6.416C63.5564 6.416 64.9564 6.856 66.0764 7.736C67.2124 8.616 67.9564 9.856 68.3084 11.456H63.9404C63.5724 10.432 62.8604 9.92 61.8044 9.92C61.0524 9.92 60.4524 10.216 60.0044 10.808C59.5564 11.384 59.3324 12.216 59.3324 13.304C59.3324 14.392 59.5564 15.232 60.0044 15.824C60.4524 16.4 61.0524 16.688 61.8044 16.688C62.8604 16.688 63.5724 16.176 63.9404 15.152H68.3084C67.9564 16.72 67.2124 17.952 66.0764 18.848C64.9404 19.744 63.5404 20.192 61.8764 20.192C60.5644 20.192 59.3964 19.912 58.3724 19.352C57.3644 18.792 56.5724 17.992 55.9964 16.952C55.4364 15.912 55.1564 14.696 55.1564 13.304ZM75.9516 20.192C74.7836 20.192 73.7436 19.992 72.8316 19.592C71.9196 19.192 71.1996 18.648 70.6716 17.96C70.1436 17.256 69.8476 16.472 69.7836 15.608H73.8396C73.8876 16.072 74.1036 16.448 74.4876 16.736C74.8716 17.024 75.3436 17.168 75.9036 17.168C76.4156 17.168 76.8076 17.072 77.0796 16.88C77.3676 16.672 77.5116 16.408 77.5116 16.088C77.5116 15.704 77.3116 15.424 76.9116 15.248C76.5116 15.056 75.8636 14.848 74.9676 14.624C74.0076 14.4 73.2076 14.168 72.5676 13.928C71.9276 13.672 71.3756 13.28 70.9116 12.752C70.4476 12.208 70.2156 11.48 70.2156 10.568C70.2156 9.8 70.4236 9.104 70.8396 8.48C71.2716 7.84 71.8956 7.336 72.7116 6.968C73.5436 6.6 74.5276 6.416 75.6636 6.416C77.3436 6.416 78.6636 6.832 79.6236 7.664C80.5996 8.496 81.1596 9.6 81.3036 10.976H77.5116C77.4476 10.512 77.2396 10.144 76.8876 9.872C76.5516 9.6 76.1036 9.464 75.5436 9.464C75.0636 9.464 74.6956 9.56 74.4396 9.752C74.1836 9.928 74.0556 10.176 74.0556 10.496C74.0556 10.88 74.2556 11.168 74.6556 11.36C75.0716 11.552 75.7116 11.744 76.5756 11.936C77.5676 12.192 78.3756 12.448 78.9996 12.704C79.6236 12.944 80.1676 13.344 80.6316 13.904C81.1116 14.448 81.3596 15.184 81.3756 16.112C81.3756 16.896 81.1516 17.6 80.7036 18.224C80.2716 18.832 79.6396 19.312 78.8076 19.664C77.9916 20.016 77.0396 20.192 75.9516 20.192ZM89.9824 20.192C88.6704 20.192 87.4864 19.912 86.4304 19.352C85.3904 18.792 84.5664 17.992 83.9584 16.952C83.3664 15.912 83.0704 14.696 83.0704 13.304C83.0704 11.928 83.3744 10.72 83.9824 9.68C84.5904 8.624 85.4224 7.816 86.4784 7.256C87.5344 6.696 88.7184 6.416 90.0304 6.416C91.3424 6.416 92.5264 6.696 93.5824 7.256C94.6384 7.816 95.4704 8.624 96.0784 9.68C96.6864 10.72 96.9904 11.928 96.9904 13.304C96.9904 14.68 96.6784 15.896 96.0544 16.952C95.4464 17.992 94.6064 18.792 93.5344 19.352C92.4784 19.912 91.2944 20.192 89.9824 20.192ZM89.9824 16.64C90.7664 16.64 91.4304 16.352 91.9744 15.776C92.5344 15.2 92.8144 14.376 92.8144 13.304C92.8144 12.232 92.5424 11.408 91.9984 10.832C91.4704 10.256 90.8144 9.968 90.0304 9.968C89.2304 9.968 88.5664 10.256 88.0384 10.832C87.5104 11.392 87.2464 12.216 87.2464 13.304C87.2464 14.376 87.5024 15.2 88.0144 15.776C88.5424 16.352 89.1984 16.64 89.9824 16.64ZM107.328 6.464C108.896 6.464 110.144 6.976 111.072 8C112.016 9.008 112.488 10.4 112.488 12.176V20H108.408V12.728C108.408 11.832 108.176 11.136 107.712 10.64C107.248 10.144 106.624 9.896 105.84 9.896C105.056 9.896 104.432 10.144 103.968 10.64C103.504 11.136 103.272 11.832 103.272 12.728V20H99.1677V6.608H103.272V8.384C103.688 7.792 104.248 7.328 104.952 6.992C105.656 6.64 106.448 6.464 107.328 6.464Z" fill="#ED7D32"/>
</svg>
