<svg width="449" height="501" viewBox="0 0 449 501" fill="none" xmlns="http://www.w3.org/2000/svg">
<path d="M34.4092 141.205L158.534 141.205C160.893 141.205 163.156 140.268 164.824 138.6C166.492 136.931 167.429 134.669 167.429 132.31V41.9489C167.429 39.5908 166.493 37.3292 164.825 35.6617C163.158 33.9943 160.896 33.0575 158.538 33.0575L34.405 33.0575C32.0469 33.0575 29.7853 33.9943 28.1178 35.6617C26.4504 37.3292 25.5136 39.5908 25.5136 41.9489L25.5136 132.31C25.5136 134.669 26.4508 136.931 28.1191 138.6C29.7873 140.268 32.0499 141.205 34.4092 141.205Z" fill="white"/>
<path d="M167.801 132.309V41.9483C167.801 39.4916 166.825 37.1354 165.088 35.3983C163.351 33.6611 160.995 32.6852 158.538 32.6852H34.4051C31.9483 32.6852 29.5922 33.6611 27.8551 35.3983C26.1179 37.1354 25.142 39.4916 25.142 41.9483V132.309C25.142 133.526 25.3817 134.731 25.8474 135.855C26.3131 136.98 26.9957 138.001 27.8563 138.862C28.7168 139.722 29.7384 140.405 30.8628 140.871C31.9871 141.336 33.1922 141.576 34.4092 141.576H158.534C159.751 141.576 160.956 141.336 162.08 140.871C163.205 140.405 164.226 139.722 165.087 138.862C165.947 138.001 166.63 136.98 167.096 135.855C167.561 134.731 167.801 133.526 167.801 132.309ZM158.538 33.4285C160.797 33.4291 162.964 34.327 164.561 35.9247C166.158 37.5224 167.055 39.6891 167.055 41.9483V132.309C167.055 134.57 166.157 136.738 164.559 138.336C162.96 139.935 160.792 140.833 158.531 140.833H34.4092C32.1485 140.833 29.9805 139.935 28.3819 138.336C26.7834 136.738 25.8853 134.57 25.8853 132.309V41.9483C25.8853 39.6887 26.7829 37.5217 28.3807 35.9239C29.9785 34.3261 32.1455 33.4285 34.4051 33.4285H158.538Z" fill="#292A2E"/>
<path d="M167.429 41.9472V49.4762H25.5147V41.9472C25.5147 39.589 26.4515 37.3274 28.119 35.66C29.7864 33.9925 32.048 33.0557 34.4061 33.0557H158.538C159.705 33.0557 160.862 33.2857 161.94 33.7326C163.019 34.1794 163.999 34.8343 164.825 35.66C165.65 36.4857 166.305 37.4658 166.752 38.5446C167.199 39.6234 167.429 40.7796 167.429 41.9472Z" fill="#292A2E"/>
<path d="M118.963 61.6466H125.659C125.738 61.6466 125.814 61.6153 125.87 61.5595C125.925 61.5038 125.957 61.4281 125.957 61.3493C125.957 61.2704 125.925 61.1948 125.87 61.139C125.814 61.0833 125.738 61.0519 125.659 61.0519H118.963C118.884 61.0519 118.808 61.0833 118.753 61.139C118.697 61.1948 118.665 61.2704 118.665 61.3493C118.665 61.4281 118.697 61.5038 118.753 61.5595C118.808 61.6153 118.884 61.6466 118.963 61.6466Z" fill="#292A2E"/>
<path d="M130.489 61.6466H133.022C133.101 61.6466 133.177 61.6153 133.233 61.5595C133.289 61.5038 133.32 61.4281 133.32 61.3493C133.32 61.2704 133.289 61.1948 133.233 61.139C133.177 61.0833 133.101 61.0519 133.022 61.0519H130.489C130.41 61.0519 130.334 61.0833 130.278 61.139C130.223 61.1948 130.191 61.2704 130.191 61.3493C130.191 61.4281 130.223 61.5038 130.278 61.5595C130.334 61.6153 130.41 61.6466 130.489 61.6466Z" fill="#367CFF"/>
<path d="M130.489 67.0105H133.022C133.101 67.0105 133.177 66.9792 133.233 66.9234C133.289 66.8677 133.32 66.792 133.32 66.7132C133.32 66.6343 133.289 66.5587 133.233 66.5029C133.177 66.4472 133.101 66.4158 133.022 66.4158H130.489C130.41 66.4158 130.334 66.4472 130.278 66.5029C130.223 66.5587 130.191 66.6343 130.191 66.7132C130.191 66.792 130.223 66.8677 130.278 66.9234C130.334 66.9792 130.41 67.0105 130.489 67.0105Z" fill="#367CFF"/>
<path d="M130.489 72.3744H133.022C133.101 72.3744 133.177 72.3431 133.233 72.2873C133.289 72.2316 133.32 72.1559 133.32 72.0771C133.32 71.9982 133.289 71.9226 133.233 71.8668C133.177 71.8111 133.101 71.7798 133.022 71.7798H130.489C130.41 71.7798 130.334 71.8111 130.278 71.8668C130.223 71.9226 130.191 71.9982 130.191 72.0771C130.191 72.1559 130.223 72.2316 130.278 72.2873C130.334 72.3431 130.41 72.3744 130.489 72.3744Z" fill="#367CFF"/>
<path d="M130.489 77.7383H133.022C133.101 77.7383 133.177 77.707 133.233 77.6512C133.289 77.5954 133.32 77.5198 133.32 77.4409C133.32 77.3621 133.289 77.2865 133.233 77.2307C133.177 77.1749 133.101 77.1436 133.022 77.1436H130.489C130.41 77.1436 130.334 77.1749 130.278 77.2307C130.223 77.2865 130.191 77.3621 130.191 77.4409C130.191 77.5198 130.223 77.5954 130.278 77.6512C130.334 77.707 130.41 77.7383 130.489 77.7383Z" fill="#367CFF"/>
<path d="M130.489 83.1021H133.022C133.101 83.1021 133.177 83.0708 133.233 83.015C133.289 82.9592 133.32 82.8836 133.32 82.8047C133.32 82.7259 133.289 82.6503 133.233 82.5945C133.177 82.5387 133.101 82.5074 133.022 82.5074H130.489C130.41 82.5074 130.334 82.5387 130.278 82.5945C130.223 82.6503 130.191 82.7259 130.191 82.8047C130.191 82.8836 130.223 82.9592 130.278 83.015C130.334 83.0708 130.41 83.1021 130.489 83.1021Z" fill="#367CFF"/>
<path d="M130.489 88.466H133.022C133.101 88.466 133.177 88.4347 133.233 88.3789C133.289 88.3232 133.32 88.2476 133.32 88.1687C133.32 88.0898 133.289 88.0142 133.233 87.9585C133.177 87.9027 133.101 87.8714 133.022 87.8714H130.489C130.41 87.8714 130.334 87.9027 130.278 87.9585C130.223 88.0142 130.191 88.0898 130.191 88.1687C130.191 88.2476 130.223 88.3232 130.278 88.3789C130.334 88.4347 130.41 88.466 130.489 88.466Z" fill="#367CFF"/>
<path d="M130.489 93.8299H133.022C133.101 93.8299 133.177 93.7986 133.233 93.7428C133.289 93.6871 133.32 93.6114 133.32 93.5326C133.32 93.4537 133.289 93.3781 133.233 93.3223C133.177 93.2666 133.101 93.2352 133.022 93.2352H130.489C130.41 93.2352 130.334 93.2666 130.278 93.3223C130.223 93.3781 130.191 93.4537 130.191 93.5326C130.191 93.6114 130.223 93.6871 130.278 93.7428C130.334 93.7986 130.41 93.8299 130.489 93.8299Z" fill="#367CFF"/>
<path d="M130.489 99.1938H133.022C133.101 99.1938 133.177 99.1625 133.233 99.1067C133.289 99.0509 133.32 98.9753 133.32 98.8965C133.32 98.8176 133.289 98.742 133.233 98.6862C133.177 98.6305 133.101 98.5991 133.022 98.5991H130.489C130.41 98.5991 130.334 98.6305 130.278 98.6862C130.223 98.742 130.191 98.8176 130.191 98.8965C130.191 98.9753 130.223 99.0509 130.278 99.1067C130.334 99.1625 130.41 99.1938 130.489 99.1938Z" fill="#367CFF"/>
<path d="M130.489 104.558H133.022C133.101 104.558 133.177 104.526 133.233 104.471C133.289 104.415 133.32 104.339 133.32 104.26C133.32 104.182 133.289 104.106 133.233 104.05C133.177 103.994 133.101 103.963 133.022 103.963H130.489C130.41 103.963 130.334 103.994 130.278 104.05C130.223 104.106 130.191 104.182 130.191 104.26C130.191 104.339 130.223 104.415 130.278 104.471C130.334 104.526 130.41 104.558 130.489 104.558Z" fill="#367CFF"/>
<path d="M130.489 109.922H133.022C133.101 109.922 133.177 109.89 133.233 109.834C133.289 109.779 133.32 109.703 133.32 109.624C133.32 109.545 133.289 109.47 133.233 109.414C133.177 109.358 133.101 109.327 133.022 109.327H130.489C130.41 109.327 130.334 109.358 130.278 109.414C130.223 109.47 130.191 109.545 130.191 109.624C130.191 109.703 130.223 109.779 130.278 109.834C130.334 109.89 130.41 109.922 130.489 109.922Z" fill="#367CFF"/>
<path d="M130.489 115.285H133.022C133.101 115.285 133.177 115.254 133.233 115.198C133.289 115.143 133.32 115.067 133.32 114.988C133.32 114.909 133.289 114.834 133.233 114.778C133.177 114.722 133.101 114.691 133.022 114.691H130.489C130.41 114.691 130.334 114.722 130.278 114.778C130.223 114.834 130.191 114.909 130.191 114.988C130.191 115.067 130.223 115.143 130.278 115.198C130.334 115.254 130.41 115.285 130.489 115.285Z" fill="#367CFF"/>
<path d="M130.489 120.649H133.022C133.101 120.649 133.177 120.618 133.233 120.562C133.289 120.506 133.32 120.431 133.32 120.352C133.32 120.273 133.289 120.197 133.233 120.142C133.177 120.086 133.101 120.055 133.022 120.055H130.489C130.41 120.055 130.334 120.086 130.278 120.142C130.223 120.197 130.191 120.273 130.191 120.352C130.191 120.431 130.223 120.506 130.278 120.562C130.334 120.618 130.41 120.649 130.489 120.649Z" fill="#367CFF"/>
<path d="M130.489 126.013H133.022C133.101 126.013 133.177 125.982 133.233 125.926C133.289 125.87 133.32 125.795 133.32 125.716C133.32 125.637 133.289 125.561 133.233 125.506C133.177 125.45 133.101 125.419 133.022 125.419H130.489C130.41 125.419 130.334 125.45 130.278 125.506C130.223 125.561 130.191 125.637 130.191 125.716C130.191 125.795 130.223 125.87 130.278 125.926C130.334 125.982 130.41 126.013 130.489 126.013Z" fill="#367CFF"/>
<path d="M130.489 131.378H133.022C133.101 131.378 133.177 131.346 133.233 131.291C133.289 131.235 133.32 131.159 133.32 131.08C133.32 131.001 133.289 130.926 133.233 130.87C133.177 130.814 133.101 130.783 133.022 130.783H130.489C130.41 130.783 130.334 130.814 130.278 130.87C130.223 130.926 130.191 131.001 130.191 131.08C130.191 131.159 130.223 131.235 130.278 131.291C130.334 131.346 130.41 131.378 130.489 131.378Z" fill="#367CFF"/>
<path d="M113.611 67.0105H119.713C119.792 67.0105 119.867 66.9792 119.923 66.9234C119.979 66.8677 120.01 66.792 120.01 66.7132C120.01 66.6343 119.979 66.5587 119.923 66.5029C119.867 66.4472 119.792 66.4158 119.713 66.4158H113.611C113.532 66.4158 113.456 66.4472 113.401 66.5029C113.345 66.5587 113.314 66.6343 113.314 66.7132C113.314 66.792 113.345 66.8677 113.401 66.9234C113.456 66.9792 113.532 67.0105 113.611 67.0105Z" fill="#292A2E"/>
<path d="M118.963 99.1938H125.659C125.738 99.1938 125.814 99.1625 125.87 99.1067C125.925 99.0509 125.957 98.9753 125.957 98.8965C125.957 98.8176 125.925 98.742 125.87 98.6862C125.814 98.6305 125.738 98.5991 125.659 98.5991H118.963C118.884 98.5991 118.808 98.6305 118.753 98.6862C118.697 98.742 118.665 98.8176 118.665 98.8965C118.665 98.9753 118.697 99.0509 118.753 99.1067C118.808 99.1625 118.884 99.1938 118.963 99.1938Z" fill="#292A2E"/>
<path d="M113.611 104.558H119.713C119.792 104.558 119.867 104.526 119.923 104.471C119.979 104.415 120.01 104.339 120.01 104.26C120.01 104.181 119.979 104.106 119.923 104.05C119.867 103.994 119.792 103.963 119.713 103.963H113.611C113.532 103.963 113.456 103.994 113.401 104.05C113.345 104.106 113.314 104.181 113.314 104.26C113.314 104.339 113.345 104.415 113.401 104.471C113.456 104.526 113.532 104.558 113.611 104.558Z" fill="#292A2E"/>
<path d="M79.1203 72.3744H115.55C115.629 72.3744 115.705 72.3431 115.76 72.2873C115.816 72.2315 115.847 72.1559 115.847 72.0771C115.847 71.9982 115.816 71.9226 115.76 71.8668C115.705 71.811 115.629 71.7797 115.55 71.7797H79.1203C79.0414 71.7797 78.9658 71.811 78.9101 71.8668C78.8543 71.9226 78.823 71.9982 78.823 72.0771C78.823 72.1559 78.8543 72.2315 78.9101 72.2873C78.9658 72.3431 79.0414 72.3744 79.1203 72.3744Z" fill="#292A2E"/>
<path d="M46.9566 72.3744H72.6818C72.7607 72.3744 72.8363 72.3431 72.892 72.2873C72.9478 72.2315 72.9791 72.1559 72.9791 72.0771C72.9791 71.9982 72.9478 71.9226 72.892 71.8668C72.8363 71.811 72.7607 71.7797 72.6818 71.7797H46.9566C46.8777 71.7797 46.8021 71.811 46.7463 71.8668C46.6905 71.9226 46.6592 71.9982 46.6592 72.0771C46.6592 72.1559 46.6905 72.2315 46.7463 72.2873C46.8021 72.3431 46.8777 72.3744 46.9566 72.3744Z" fill="#0CBC8B"/>
<path d="M33.1509 72.3744H41.0361C41.115 72.3744 41.1906 72.3431 41.2464 72.2873C41.3021 72.2315 41.3335 72.1559 41.3335 72.0771C41.3335 71.9982 41.3021 71.9226 41.2464 71.8668C41.1906 71.811 41.115 71.7797 41.0361 71.7797H33.1509C33.072 71.7797 32.9964 71.811 32.9406 71.8668C32.8848 71.9226 32.8535 71.9982 32.8535 72.0771C32.8535 72.1559 32.8848 72.2315 32.9406 72.2873C32.9964 72.3431 33.072 72.3744 33.1509 72.3744Z" fill="#292A2E"/>
<path d="M61.2803 83.1021H115.55C115.629 83.1021 115.705 83.0708 115.76 83.015C115.816 82.9593 115.847 82.8836 115.847 82.8048C115.847 82.7259 115.816 82.6503 115.76 82.5945C115.705 82.5388 115.629 82.5074 115.55 82.5074H61.2803C61.2015 82.5074 61.1259 82.5388 61.0701 82.5945C61.0143 82.6503 60.983 82.7259 60.983 82.8048C60.983 82.8836 61.0143 82.9593 61.0701 83.015C61.1259 83.0708 61.2015 83.1021 61.2803 83.1021Z" fill="#292A2E"/>
<path d="M46.9566 83.1021H54.8419C54.9207 83.1021 54.9964 83.0708 55.0521 83.015C55.1079 82.9592 55.1392 82.8836 55.1392 82.8047C55.1392 82.7259 55.1079 82.6503 55.0521 82.5945C54.9964 82.5387 54.9207 82.5074 54.8419 82.5074H46.9566C46.8778 82.5074 46.8021 82.5387 46.7464 82.5945C46.6906 82.6503 46.6593 82.7259 46.6593 82.8047C46.6593 82.8836 46.6906 82.9592 46.7464 83.015C46.8021 83.0708 46.8778 83.1021 46.9566 83.1021Z" fill="#367CFF"/>
<path d="M108.854 77.7383H115.55C115.629 77.7383 115.705 77.7069 115.76 77.6512C115.816 77.5954 115.847 77.5198 115.847 77.4409C115.847 77.3621 115.816 77.2864 115.76 77.2307C115.705 77.1749 115.629 77.1436 115.55 77.1436H108.854C108.775 77.1436 108.699 77.1749 108.643 77.2307C108.588 77.2864 108.556 77.3621 108.556 77.4409C108.556 77.5198 108.588 77.5954 108.643 77.6512C108.699 77.7069 108.775 77.7383 108.854 77.7383Z" fill="#0CBC8B"/>
<path d="M64.7966 77.7382H102.415C102.494 77.7382 102.57 77.7069 102.625 77.6511C102.681 77.5954 102.712 77.5197 102.712 77.4409C102.712 77.362 102.681 77.2864 102.625 77.2306C102.57 77.1749 102.494 77.1436 102.415 77.1436H64.7966C64.7177 77.1436 64.6421 77.1749 64.5863 77.2306C64.5306 77.2864 64.4993 77.362 64.4993 77.4409C64.4993 77.5197 64.5306 77.5954 64.5863 77.6511C64.6421 77.7069 64.7177 77.7382 64.7966 77.7382Z" fill="#367CFF"/>
<path d="M33.0991 77.7382H57.6368C57.7156 77.7382 57.7913 77.7069 57.847 77.6511C57.9028 77.5954 57.9341 77.5197 57.9341 77.4409C57.9341 77.362 57.9028 77.2864 57.847 77.2306C57.7913 77.1749 57.7156 77.1436 57.6368 77.1436H33.1003C33.0214 77.1436 32.9458 77.1749 32.8901 77.2306C32.8343 77.2864 32.803 77.362 32.803 77.4409C32.803 77.5197 32.8343 77.5954 32.8901 77.6511C32.9458 77.7069 33.0214 77.7382 33.1003 77.7382H33.0991Z" fill="#292A2E"/>
<path d="M79.1203 88.466H115.55C115.629 88.466 115.705 88.4347 115.76 88.3789C115.816 88.3232 115.847 88.2476 115.847 88.1687C115.847 88.0898 115.816 88.0142 115.76 87.9585C115.705 87.9027 115.629 87.8714 115.55 87.8714H79.1203C79.0414 87.8714 78.9658 87.9027 78.9101 87.9585C78.8543 88.0142 78.823 88.0898 78.823 88.1687C78.823 88.2476 78.8543 88.3232 78.9101 88.3789C78.9658 88.4347 79.0414 88.466 79.1203 88.466Z" fill="#292A2E"/>
<path d="M58.8499 88.466H72.6818C72.7607 88.466 72.8363 88.4347 72.892 88.3789C72.9478 88.3232 72.9791 88.2476 72.9791 88.1687C72.9791 88.0898 72.9478 88.0142 72.892 87.9585C72.8363 87.9027 72.7607 87.8714 72.6818 87.8714H58.8499C58.771 87.8714 58.6954 87.9027 58.6396 87.9585C58.5838 88.0142 58.5525 88.0898 58.5525 88.1687C58.5525 88.2476 58.5838 88.3232 58.6396 88.3789C58.6954 88.4347 58.771 88.466 58.8499 88.466Z" fill="#0CBC8B"/>
<path d="M33.1508 88.466H52.9294C53.0083 88.466 53.0839 88.4347 53.1396 88.3789C53.1954 88.3232 53.2267 88.2476 53.2267 88.1687C53.2267 88.0898 53.1954 88.0142 53.1396 87.9585C53.0839 87.9027 53.0083 87.8714 52.9294 87.8714H33.1508C33.072 87.8714 32.9963 87.9027 32.9406 87.9585C32.8848 88.0142 32.8535 88.0898 32.8535 88.1687C32.8535 88.2476 32.8848 88.3232 32.9406 88.3789C32.9963 88.4347 33.072 88.466 33.1508 88.466Z" fill="#292A2E"/>
<path d="M108.854 93.8299H115.55C115.629 93.8299 115.705 93.7986 115.76 93.7428C115.816 93.6871 115.847 93.6114 115.847 93.5326C115.847 93.4537 115.816 93.3781 115.76 93.3223C115.705 93.2666 115.629 93.2352 115.55 93.2352H108.854C108.775 93.2352 108.699 93.2666 108.643 93.3223C108.588 93.3781 108.556 93.4537 108.556 93.5326C108.556 93.6114 108.588 93.6871 108.643 93.7428C108.699 93.7986 108.775 93.8299 108.854 93.8299Z" fill="#367CFF"/>
<path d="M64.7966 93.8299H102.415C102.494 93.8299 102.57 93.7986 102.625 93.7428C102.681 93.6871 102.712 93.6114 102.712 93.5326C102.712 93.4537 102.681 93.3781 102.625 93.3223C102.57 93.2666 102.494 93.2352 102.415 93.2352H64.7966C64.7177 93.2352 64.6421 93.2666 64.5863 93.3223C64.5306 93.3781 64.4993 93.4537 64.4993 93.5326C64.4993 93.6114 64.5306 93.6871 64.5863 93.7428C64.6421 93.7986 64.7177 93.8299 64.7966 93.8299Z" fill="#0CBC8B"/>
<path d="M80.3096 115.285H116.739C116.818 115.285 116.894 115.254 116.95 115.198C117.005 115.143 117.037 115.067 117.037 114.988C117.037 114.909 117.005 114.834 116.95 114.778C116.894 114.722 116.818 114.691 116.739 114.691H80.3096C80.2307 114.691 80.1551 114.722 80.0993 114.778C80.0436 114.834 80.0122 114.909 80.0122 114.988C80.0122 115.067 80.0436 115.143 80.0993 115.198C80.1551 115.254 80.2307 115.285 80.3096 115.285Z" fill="#292A2E"/>
<path d="M48.146 115.285H73.8712C73.95 115.285 74.0256 115.254 74.0814 115.198C74.1372 115.143 74.1685 115.067 74.1685 114.988C74.1685 114.909 74.1372 114.834 74.0814 114.778C74.0256 114.722 73.95 114.691 73.8712 114.691H48.146C48.0671 114.691 47.9915 114.722 47.9357 114.778C47.8799 114.834 47.8486 114.909 47.8486 114.988C47.8486 115.067 47.8799 115.143 47.9357 115.198C47.9915 115.254 48.0671 115.285 48.146 115.285Z" fill="#367CFF"/>
<path d="M98.1495 109.922H116.739C116.818 109.922 116.894 109.89 116.95 109.834C117.005 109.779 117.037 109.703 117.037 109.624C117.037 109.545 117.005 109.47 116.95 109.414C116.894 109.358 116.818 109.327 116.739 109.327H98.1495C98.0707 109.327 97.9951 109.358 97.9393 109.414C97.8835 109.47 97.8522 109.545 97.8522 109.624C97.8522 109.703 97.8835 109.779 97.9393 109.834C97.9951 109.89 98.0707 109.922 98.1495 109.922Z" fill="#0CBC8B"/>
<path d="M65.9859 109.922H91.7111C91.7899 109.922 91.8656 109.89 91.9213 109.834C91.9771 109.779 92.0084 109.703 92.0084 109.624C92.0084 109.545 91.9771 109.47 91.9213 109.414C91.8656 109.358 91.7899 109.327 91.7111 109.327H65.9859C65.907 109.327 65.8314 109.358 65.7756 109.414C65.7198 109.47 65.6885 109.545 65.6885 109.624C65.6885 109.703 65.7198 109.779 65.7756 109.834C65.8314 109.89 65.907 109.922 65.9859 109.922Z" fill="#367CFF"/>
<path d="M34.2885 109.922H58.8261C58.905 109.922 58.9806 109.89 59.0364 109.834C59.0922 109.779 59.1235 109.703 59.1235 109.624C59.1235 109.545 59.0922 109.47 59.0364 109.414C58.9806 109.358 58.905 109.327 58.8261 109.327H34.2897C34.2108 109.327 34.1352 109.358 34.0794 109.414C34.0237 109.47 33.9923 109.545 33.9923 109.624C33.9923 109.703 34.0237 109.779 34.0794 109.834C34.1352 109.89 34.2108 109.922 34.2897 109.922H34.2885Z" fill="#292A2E"/>
<path d="M62.4696 126.014H116.739C116.818 126.014 116.894 125.982 116.95 125.927C117.005 125.871 117.037 125.795 117.037 125.716C117.037 125.638 117.005 125.562 116.95 125.506C116.894 125.45 116.818 125.419 116.739 125.419H62.4696C62.3907 125.419 62.3151 125.45 62.2594 125.506C62.2036 125.562 62.1723 125.638 62.1723 125.716C62.1723 125.795 62.2036 125.871 62.2594 125.927C62.3151 125.982 62.3907 126.014 62.4696 126.014Z" fill="#367CFF"/>
<path d="M48.146 126.014H56.0312C56.1101 126.014 56.1857 125.982 56.2414 125.927C56.2972 125.871 56.3286 125.795 56.3286 125.716C56.3286 125.638 56.2972 125.562 56.2414 125.506C56.1857 125.45 56.1101 125.419 56.0312 125.419H48.146C48.0671 125.419 47.9915 125.45 47.9357 125.506C47.8799 125.562 47.8486 125.638 47.8486 125.716C47.8486 125.795 47.8799 125.871 47.9357 125.927C47.9915 125.982 48.0671 126.014 48.146 126.014Z" fill="#292A2E"/>
<path d="M110.043 120.65H116.739C116.818 120.65 116.894 120.619 116.95 120.563C117.005 120.507 117.037 120.431 117.037 120.353C117.037 120.274 117.005 120.198 116.95 120.142C116.894 120.087 116.818 120.055 116.739 120.055H110.043C109.964 120.055 109.888 120.087 109.833 120.142C109.777 120.198 109.745 120.274 109.745 120.353C109.745 120.431 109.777 120.507 109.833 120.563C109.888 120.619 109.964 120.65 110.043 120.65Z" fill="#367CFF"/>
<path d="M65.9859 120.65H103.604C103.683 120.65 103.759 120.619 103.815 120.563C103.87 120.507 103.902 120.431 103.902 120.353C103.902 120.274 103.87 120.198 103.815 120.142C103.759 120.087 103.683 120.055 103.604 120.055H65.9859C65.9071 120.055 65.8314 120.087 65.7757 120.142C65.7199 120.198 65.6886 120.274 65.6886 120.353C65.6886 120.431 65.7199 120.507 65.7757 120.563C65.8314 120.619 65.9071 120.65 65.9859 120.65Z" fill="#292A2E"/>
<path d="M34.2885 120.65H58.8261C58.905 120.65 58.9806 120.619 59.0364 120.563C59.0922 120.507 59.1235 120.431 59.1235 120.353C59.1235 120.274 59.0922 120.198 59.0364 120.142C58.9806 120.087 58.905 120.055 58.8261 120.055H34.2897C34.2108 120.055 34.1352 120.087 34.0794 120.142C34.0237 120.198 33.9923 120.274 33.9923 120.353C33.9923 120.431 34.0237 120.507 34.0794 120.563C34.1352 120.619 34.2108 120.65 34.2897 120.65H34.2885Z" fill="#0CBC8B"/>
<path d="M80.3096 131.378H116.739C116.818 131.378 116.894 131.346 116.95 131.291C117.005 131.235 117.037 131.159 117.037 131.08C117.037 131.001 117.005 130.926 116.95 130.87C116.894 130.814 116.818 130.783 116.739 130.783H80.3096C80.2307 130.783 80.1551 130.814 80.0993 130.87C80.0436 130.926 80.0122 131.001 80.0122 131.08C80.0122 131.159 80.0436 131.235 80.0993 131.291C80.1551 131.346 80.2307 131.378 80.3096 131.378Z" fill="#0CBC8B"/>
<path d="M60.0393 131.378H73.8712C73.95 131.378 74.0256 131.346 74.0814 131.291C74.1372 131.235 74.1685 131.159 74.1685 131.08C74.1685 131.001 74.1372 130.926 74.0814 130.87C74.0256 130.814 73.95 130.783 73.8712 130.783H60.0393C59.9604 130.783 59.8848 130.814 59.829 130.87C59.7732 130.926 59.7419 131.001 59.7419 131.08C59.7419 131.159 59.7732 131.235 59.829 131.291C59.8848 131.346 59.9604 131.378 60.0393 131.378Z" fill="#292A2E"/>
<path d="M34.3402 131.378H54.1188C54.1976 131.378 54.2732 131.346 54.329 131.291C54.3848 131.235 54.4161 131.159 54.4161 131.08C54.4161 131.001 54.3848 130.926 54.329 130.87C54.2732 130.814 54.1976 130.783 54.1188 130.783H34.3402C34.2613 130.783 34.1857 130.814 34.1299 130.87C34.0742 130.926 34.0429 131.001 34.0429 131.08C34.0429 131.159 34.0742 131.235 34.1299 131.291C34.1857 131.346 34.2613 131.378 34.3402 131.378Z" fill="#367CFF"/>
<path d="M135.847 137.117C135.925 137.117 136.001 137.086 136.057 137.03C136.113 136.975 136.144 136.899 136.144 136.82V52.283C136.144 52.2041 136.113 52.1285 136.057 52.0727C136.001 52.017 135.925 51.9857 135.847 51.9857C135.768 51.9857 135.692 52.017 135.636 52.0727C135.581 52.1285 135.549 52.2041 135.549 52.283V136.82C135.549 136.899 135.581 136.975 135.636 137.03C135.692 137.086 135.768 137.117 135.847 137.117Z" fill="#292A2E"/>
<path d="M36.2658 46.6319C33.6311 46.6319 31.4954 44.4961 31.4954 41.8615C31.4954 39.2269 33.6311 37.0911 36.2658 37.0911C38.9004 37.0911 41.0362 39.2269 41.0362 41.8615C41.0362 44.4961 38.9004 46.6319 36.2658 46.6319Z" fill="white"/>
<path d="M149.446 55.9973H162.322C162.401 55.9973 162.476 55.966 162.532 55.9102C162.588 55.8544 162.619 55.7788 162.619 55.7C162.619 55.6211 162.588 55.5455 162.532 55.4897C162.476 55.4339 162.401 55.4026 162.322 55.4026H149.446C149.367 55.4026 149.292 55.4339 149.236 55.4897C149.18 55.5455 149.149 55.6211 149.149 55.7C149.149 55.7788 149.18 55.8544 149.236 55.9102C149.292 55.966 149.367 55.9973 149.446 55.9973Z" fill="#292A2E"/>
<path d="M153.325 61.8619H162.322C162.401 61.8619 162.476 61.8306 162.532 61.7748C162.588 61.719 162.619 61.6434 162.619 61.5645C162.619 61.4857 162.588 61.4101 162.532 61.3543C162.476 61.2985 162.401 61.2672 162.322 61.2672H153.325C153.246 61.2672 153.171 61.2985 153.115 61.3543C153.059 61.4101 153.028 61.4857 153.028 61.5645C153.028 61.6434 153.059 61.719 153.115 61.7748C153.171 61.8306 153.246 61.8619 153.325 61.8619Z" fill="#292A2E"/>
<path d="M145.413 67.7265H162.322C162.401 67.7265 162.476 67.6951 162.532 67.6394C162.588 67.5836 162.619 67.508 162.619 67.4291C162.619 67.3503 162.588 67.2747 162.532 67.2189C162.476 67.1631 162.401 67.1318 162.322 67.1318H145.413C145.334 67.1318 145.259 67.1631 145.203 67.2189C145.147 67.2747 145.116 67.3503 145.116 67.4291C145.116 67.508 145.147 67.5836 145.203 67.6394C145.259 67.6951 145.334 67.7265 145.413 67.7265Z" fill="#292A2E"/>
<path d="M142.258 73.5911H156.375C156.454 73.5911 156.53 73.5597 156.585 73.504C156.641 73.4482 156.672 73.3726 156.672 73.2937C156.672 73.2149 156.641 73.1392 156.585 73.0835C156.53 73.0277 156.454 72.9964 156.375 72.9964H142.258C142.179 72.9964 142.103 73.0277 142.047 73.0835C141.992 73.1392 141.96 73.2149 141.96 73.2937C141.96 73.3726 141.992 73.4482 142.047 73.504C142.103 73.5597 142.179 73.5911 142.258 73.5911Z" fill="#292A2E"/>
<path d="M149.084 79.4563H156.375C156.454 79.4563 156.53 79.4249 156.585 79.3692C156.641 79.3134 156.672 79.2378 156.672 79.1589C156.672 79.0801 156.641 79.0044 156.585 78.9487C156.53 78.8929 156.454 78.8616 156.375 78.8616H149.084C149.006 78.8616 148.93 78.8929 148.874 78.9487C148.818 79.0044 148.787 79.0801 148.787 79.1589C148.787 79.2378 148.818 79.3134 148.874 79.3692C148.93 79.4249 149.006 79.4563 149.084 79.4563Z" fill="#292A2E"/>
<path d="M143.499 85.3209H156.375C156.454 85.3209 156.53 85.2895 156.585 85.2338C156.641 85.178 156.672 85.1024 156.672 85.0235C156.672 84.9447 156.641 84.869 156.585 84.8133C156.53 84.7575 156.454 84.7262 156.375 84.7262H143.499C143.421 84.7262 143.345 84.7575 143.289 84.8133C143.233 84.869 143.202 84.9447 143.202 85.0235C143.202 85.1024 143.233 85.178 143.289 85.2338C143.345 85.2895 143.421 85.3209 143.499 85.3209Z" fill="#292A2E"/>
<path d="M152.394 91.1854H162.322C162.401 91.1854 162.476 91.1541 162.532 91.0983C162.588 91.0426 162.619 90.9669 162.619 90.8881C162.619 90.8092 162.588 90.7336 162.532 90.6778C162.476 90.6221 162.401 90.5908 162.322 90.5908H152.394C152.315 90.5908 152.239 90.6221 152.184 90.6778C152.128 90.7336 152.096 90.8092 152.096 90.8881C152.096 90.9669 152.128 91.0426 152.184 91.0983C152.239 91.1541 152.315 91.1854 152.394 91.1854Z" fill="#292A2E"/>
<path d="M155.807 97.0494H162.322C162.401 97.0494 162.476 97.0181 162.532 96.9624C162.588 96.9066 162.619 96.831 162.619 96.7521C162.619 96.6732 162.588 96.5976 162.532 96.5419C162.476 96.4861 162.401 96.4548 162.322 96.4548H155.807C155.728 96.4548 155.652 96.4861 155.596 96.5419C155.541 96.5976 155.509 96.6732 155.509 96.7521C155.509 96.831 155.541 96.9066 155.596 96.9624C155.652 97.0181 155.728 97.0494 155.807 97.0494Z" fill="#292A2E"/>
<path d="M130.893 54.739V54.846L127.176 56.2257C127.123 56.2473 127.078 56.2844 127.046 56.3321C127.014 56.3798 126.998 56.4359 126.998 56.4933V56.5943C126.997 56.639 127.007 56.6832 127.028 56.7227C127.049 56.7622 127.08 56.7958 127.117 56.8203C127.155 56.8469 127.198 56.8635 127.244 56.8687C127.29 56.8739 127.337 56.8675 127.379 56.8501L131.577 55.2088C131.629 55.1878 131.674 55.1518 131.706 55.1052C131.738 55.0586 131.755 55.0035 131.755 54.9471V54.6438C131.756 54.5873 131.739 54.5319 131.707 54.4851C131.675 54.4383 131.63 54.4024 131.577 54.3822L127.379 52.735C127.345 52.7233 127.309 52.7173 127.272 52.7171C127.217 52.7183 127.163 52.7348 127.117 52.7647C127.079 52.7905 127.049 52.8251 127.028 52.8656C127.007 52.9061 126.997 52.9511 126.998 52.9966V53.0977C126.997 53.1545 127.013 53.2102 127.045 53.2571C127.077 53.3041 127.123 53.3398 127.176 53.3594L130.893 54.739Z" fill="#367CFF"/>
<path d="M123.526 51.5218L125.75 58.3307C125.768 58.3875 125.804 58.4371 125.852 58.4724C125.9 58.5077 125.958 58.5268 126.017 58.527C126.061 58.5276 126.103 58.5177 126.142 58.498C126.18 58.4783 126.213 58.4494 126.237 58.414C126.264 58.3788 126.282 58.338 126.29 58.2946C126.299 58.2513 126.297 58.2066 126.284 58.1642L124.061 51.3612C124.042 51.3033 124.005 51.2528 123.956 51.2165C123.907 51.1803 123.848 51.1602 123.787 51.1591C123.744 51.1589 123.702 51.1691 123.664 51.1887C123.625 51.2084 123.592 51.237 123.567 51.272C123.541 51.3072 123.523 51.3483 123.516 51.3918C123.509 51.4353 123.512 51.4799 123.526 51.5218Z" fill="#367CFF"/>
<path d="M118.064 54.6438V54.9471C118.064 55.003 118.08 55.0578 118.11 55.1045C118.141 55.1512 118.185 55.1875 118.237 55.2087L122.441 56.85C122.483 56.8673 122.528 56.8736 122.573 56.8684C122.618 56.8632 122.66 56.8466 122.697 56.8203C122.735 56.7961 122.766 56.7627 122.788 56.7232C122.81 56.6837 122.822 56.6394 122.822 56.5943V56.4932C122.822 56.4351 122.805 56.3782 122.772 56.3303C122.739 56.2824 122.692 56.2459 122.637 56.2256L118.921 54.846V54.739L122.637 53.3593C122.692 53.3412 122.739 53.3059 122.773 53.2588C122.806 53.2118 122.823 53.1553 122.822 53.0977V52.9966C122.822 52.9506 122.81 52.9055 122.788 52.865C122.767 52.8246 122.735 52.7901 122.697 52.7647C122.651 52.7348 122.597 52.7184 122.542 52.7171C122.508 52.7167 122.473 52.7228 122.441 52.7349L118.237 54.3821C118.185 54.4028 118.14 54.4389 118.109 54.4858C118.079 54.5326 118.063 54.5878 118.064 54.6438Z" fill="#367CFF"/>
<path d="M202.141 0H411.597V209.456H202.141V0Z" fill="#F4F4F4"/>
<path d="M411.597 0H413.997V209.456H411.597V0Z" fill="#F4F4F4"/>
<path opacity="0.05" d="M411.597 0H413.997V209.456H411.597V0Z" fill="#292A2E"/>
<path opacity="0.05" d="M360.855 144.332V89.5316H315.965V121.37H246.431V177.743H216.878V209.456H246.431H252.124H401.521V144.332H360.855Z" fill="#292A2E"/>
<path opacity="0.34" d="M321.727 95.4818H354.417V101.432H321.727V95.4818Z" fill="#FFFFFA"/>
<path opacity="0.34" d="M321.727 107.812H354.417V113.762H321.727V107.812Z" fill="#FFFFFA"/>
<path opacity="0.34" d="M321.727 120.141H354.417V126.092H321.727V120.141Z" fill="#FFFFFA"/>
<path opacity="0.34" d="M389.699 150.108H395.724V156.058H389.699V150.108Z" fill="#FFFFFA"/>
<path opacity="0.34" d="M389.699 162.438H395.724V168.388H389.699V162.438Z" fill="#FFFFFA"/>
<path opacity="0.34" d="M389.699 174.768H395.724V180.718H389.699V174.768Z" fill="#FFFFFA"/>
<path opacity="0.34" d="M378.553 150.108H384.578V156.058H378.553V150.108Z" fill="#FFFFFA"/>
<path opacity="0.34" d="M378.553 162.438H384.578V168.388H378.553V162.438Z" fill="#FFFFFA"/>
<path opacity="0.34" d="M378.553 174.768H384.578V180.718H378.553V174.768Z" fill="#FFFFFA"/>
<path opacity="0.34" d="M367.707 150.108H373.732V156.058H367.707V150.108Z" fill="#FFFFFA"/>
<path opacity="0.34" d="M367.707 162.438H373.732V168.388H367.707V162.438Z" fill="#FFFFFA"/>
<path opacity="0.34" d="M367.707 174.768H373.732V180.718H367.707V174.768Z" fill="#FFFFFA"/>
<path d="M411.597 103.553H369.45V0H365.965V103.553H252.124V0H248.639V103.553H202.141V107.039H248.639V209.456H252.124V107.039H365.965V209.456H369.45V107.039H411.597V103.553Z" fill="white"/>
<path d="M193.796 209.203H419.94V216.169H193.796V209.203Z" fill="#F4F4F4"/>
<path opacity="0.1" d="M193.796 209.203H419.94V216.169H193.796V209.203Z" fill="#292A2E"/>
<path opacity="0.1" d="M419.94 209.203H423.206V216.169H419.94V209.203Z" fill="#292A2E"/>
<path opacity="0.1" d="M419.94 209.203H423.206V216.169H419.94V209.203Z" fill="#292A2E"/>
<path d="M413.997 8.91763L202.141 8.91763V3.73869L413.997 3.73869V8.91763Z" fill="white"/>
<path d="M413.997 18.5916L202.141 18.5916V13.4126L413.997 13.4126V18.5916Z" fill="white"/>
<path d="M413.997 28.265L202.141 28.265V23.086L413.997 23.086V28.265Z" fill="white"/>
<path d="M413.997 37.9384L202.141 37.9384V32.7595L413.997 32.7595V37.9384Z" fill="white"/>
<path d="M413.997 47.6113L202.141 47.6113V42.4324L413.997 42.4324V47.6113Z" fill="white"/>
<path d="M391.496 53.4527H388.321V3.43323e-05H391.496V53.4527Z" fill="white"/>
<path d="M390.177 61.1292C387.768 61.1292 385.815 59.1764 385.815 56.7674C385.815 54.3584 387.768 52.4055 390.177 52.4055C392.586 52.4055 394.539 54.3584 394.539 56.7674C394.539 59.1764 392.586 61.1292 390.177 61.1292Z" fill="white"/>
<path d="M412.148 500.599L413.316 500.374L395.062 318.983L393.894 319.207L412.148 500.599Z" fill="#494949"/>
<path d="M344.179 500.599L345.347 500.374L327.093 318.983L325.926 319.207L344.179 500.599Z" fill="#494949"/>
<path d="M193.938 500.599L192.77 500.374L211.024 318.983L212.191 319.207L193.938 500.599Z" fill="#494949"/>
<path d="M261.907 500.599L260.739 500.374L278.992 318.983L280.16 319.207L261.907 500.599Z" fill="#494949"/>
<path d="M286.114 239.152L287.293 239.309L276.629 319.175L275.45 319.018L286.114 239.152Z" fill="#494949"/>
<path d="M408.511 239.151L409.689 239.308L399.026 319.174L397.847 319.017L408.511 239.151Z" fill="#494949"/>
<path d="M275.553 313.246H395.271C398.501 313.246 401.12 315.865 401.12 319.095V319.096C401.12 322.326 398.501 324.944 395.271 324.944H275.553C272.323 324.944 269.705 322.326 269.705 319.096V319.095C269.705 315.865 272.323 313.246 275.553 313.246Z" fill="#292A2E"/>
<path opacity="0.8" d="M275.553 313.246H395.271C398.501 313.246 401.12 315.865 401.12 319.095V319.096C401.12 322.326 398.501 324.944 395.271 324.944H275.553C272.323 324.944 269.705 322.326 269.705 319.096V319.095C269.705 315.865 272.323 313.246 275.553 313.246Z" fill="white"/>
<path d="M275.553 325.538H395.271C396.117 325.538 396.955 325.372 397.736 325.048C398.518 324.724 399.228 324.249 399.827 323.651C400.425 323.053 400.9 322.342 401.223 321.561C401.547 320.779 401.714 319.941 401.714 319.095C401.714 318.249 401.547 317.411 401.223 316.629C400.9 315.848 400.425 315.137 399.827 314.539C399.228 313.941 398.518 313.466 397.736 313.142C396.955 312.819 396.117 312.652 395.271 312.652H275.553C274.707 312.652 273.869 312.819 273.087 313.142C272.306 313.466 271.595 313.941 270.997 314.539C270.399 315.137 269.924 315.848 269.6 316.629C269.277 317.411 269.11 318.249 269.11 319.095C269.11 319.941 269.277 320.779 269.6 321.561C269.924 322.342 270.399 323.053 270.997 323.651C271.595 324.249 272.306 324.724 273.087 325.048C273.869 325.372 274.707 325.538 275.553 325.538ZM395.271 313.841C395.961 313.841 396.644 313.977 397.281 314.241C397.919 314.505 398.498 314.892 398.986 315.38C399.474 315.868 399.861 316.447 400.125 317.084C400.389 317.722 400.524 318.405 400.524 319.095C400.524 319.785 400.389 320.468 400.125 321.106C399.861 321.743 399.474 322.322 398.986 322.81C398.498 323.298 397.919 323.685 397.281 323.949C396.644 324.213 395.961 324.349 395.271 324.349H275.553C274.863 324.349 274.18 324.213 273.543 323.949C272.905 323.685 272.326 323.298 271.838 322.81C271.35 322.322 270.963 321.743 270.699 321.106C270.435 320.468 270.299 319.785 270.299 319.095C270.299 318.405 270.435 317.722 270.699 317.084C270.963 316.447 271.35 315.868 271.838 315.38C272.326 314.892 272.905 314.505 273.543 314.241C274.18 313.977 274.863 313.841 275.553 313.841H395.271Z" fill="#292A2E"/>
<path d="M209.845 313.246H329.563C332.793 313.246 335.411 315.865 335.411 319.095V319.096C335.411 322.326 332.793 324.944 329.563 324.944H209.845C206.615 324.944 203.996 322.326 203.996 319.096V319.095C203.996 315.865 206.615 313.246 209.845 313.246Z" fill="white"/>
<path d="M209.845 325.538H329.563C330.409 325.538 331.247 325.372 332.029 325.048C332.81 324.724 333.521 324.249 334.119 323.651C334.717 323.053 335.192 322.342 335.516 321.561C335.84 320.779 336.006 319.941 336.006 319.095C336.006 318.249 335.84 317.411 335.516 316.629C335.192 315.848 334.717 315.137 334.119 314.539C333.521 313.941 332.81 313.466 332.029 313.142C331.247 312.819 330.409 312.652 329.563 312.652H209.845C208.999 312.652 208.161 312.819 207.379 313.142C206.598 313.466 205.887 313.941 205.289 314.539C204.691 315.137 204.216 315.848 203.892 316.629C203.568 317.411 203.402 318.249 203.402 319.095C203.402 319.941 203.568 320.779 203.892 321.561C204.216 322.342 204.691 323.053 205.289 323.651C205.887 324.249 206.598 324.724 207.379 325.048C208.161 325.372 208.999 325.538 209.845 325.538ZM329.563 313.841C330.253 313.841 330.936 313.977 331.574 314.241C332.211 314.505 332.79 314.892 333.278 315.38C333.766 315.868 334.153 316.447 334.417 317.084C334.681 317.722 334.817 318.405 334.817 319.095C334.817 319.785 334.681 320.468 334.417 321.106C334.153 321.743 333.766 322.322 333.278 322.81C332.79 323.298 332.211 323.685 331.574 323.949C330.936 324.213 330.253 324.349 329.563 324.349H209.845C209.155 324.349 208.472 324.213 207.834 323.949C207.197 323.685 206.618 323.298 206.13 322.81C205.642 322.322 205.255 321.743 204.991 321.106C204.727 320.468 204.591 319.785 204.591 319.095C204.591 318.405 204.727 317.722 204.991 317.084C205.255 316.447 205.642 315.868 206.13 315.38C206.618 314.892 207.197 314.505 207.834 314.241C208.472 313.977 209.155 313.841 209.845 313.841H329.563Z" fill="#292A2E"/>
<path d="M292.672 239.229H408.779C410.677 239.229 412.511 238.538 413.937 237.285C415.363 236.033 416.285 234.304 416.53 232.421L424.211 173.443C424.354 172.341 424.261 171.22 423.937 170.156C423.613 169.093 423.066 168.111 422.332 167.275C421.598 166.44 420.695 165.771 419.682 165.312C418.669 164.854 417.57 164.617 416.458 164.617H300.352C298.454 164.617 296.621 165.308 295.194 166.56C293.768 167.813 292.846 169.542 292.601 171.424L284.922 230.403C284.778 231.506 284.871 232.626 285.195 233.689C285.519 234.753 286.066 235.735 286.799 236.57C287.533 237.406 288.436 238.075 289.449 238.534C290.462 238.992 291.561 239.229 292.672 239.229Z" fill="#292A2E"/>
<path opacity="0.8" d="M292.672 239.229H408.779C410.677 239.229 412.511 238.538 413.937 237.285C415.363 236.033 416.285 234.304 416.53 232.421L424.211 173.443C424.354 172.341 424.261 171.22 423.937 170.156C423.613 169.093 423.066 168.111 422.332 167.275C421.598 166.44 420.695 165.771 419.682 165.312C418.669 164.854 417.57 164.617 416.458 164.617H300.352C298.454 164.617 296.621 165.308 295.194 166.56C293.768 167.813 292.846 169.542 292.601 171.424L284.922 230.403C284.778 231.506 284.871 232.626 285.195 233.689C285.519 234.753 286.066 235.735 286.799 236.57C287.533 237.406 288.436 238.075 289.449 238.534C290.462 238.992 291.561 239.229 292.672 239.229Z" fill="white"/>
<path d="M292.672 239.824H408.779C410.821 239.819 412.791 239.074 414.325 237.727C415.859 236.38 416.852 234.522 417.12 232.498L424.8 173.52C424.955 172.333 424.854 171.128 424.506 169.983C424.157 168.838 423.569 167.781 422.779 166.882C421.99 165.983 421.017 165.263 419.927 164.77C418.837 164.277 417.654 164.022 416.458 164.022H300.353C298.311 164.026 296.34 164.771 294.807 166.119C293.273 167.466 292.28 169.324 292.012 171.348L284.332 230.326C284.177 231.513 284.277 232.718 284.626 233.863C284.974 235.007 285.563 236.064 286.352 236.963C287.142 237.862 288.114 238.582 289.204 239.075C290.294 239.569 291.476 239.824 292.672 239.824ZM416.458 165.211C417.485 165.211 418.5 165.43 419.436 165.854C420.372 166.278 421.207 166.896 421.884 167.668C422.562 168.439 423.068 169.347 423.367 170.33C423.666 171.312 423.752 172.347 423.62 173.366L415.939 232.345C415.709 234.082 414.857 235.678 413.54 236.834C412.223 237.991 410.531 238.631 408.778 238.634H292.672C291.645 238.634 290.63 238.415 289.695 237.991C288.759 237.567 287.925 236.949 287.247 236.177C286.57 235.406 286.064 234.498 285.765 233.516C285.466 232.533 285.38 231.498 285.513 230.48L293.191 171.502C293.421 169.764 294.274 168.169 295.591 167.012C296.908 165.855 298.6 165.216 300.353 165.212L416.458 165.211Z" fill="#292A2E"/>
<path d="M286.107 239.229H402.214C404.112 239.229 405.946 238.538 407.372 237.285C408.798 236.033 409.72 234.304 409.965 232.421L417.647 173.443C417.791 172.341 417.698 171.22 417.374 170.157C417.05 169.093 416.503 168.111 415.769 167.276C415.036 166.44 414.132 165.771 413.119 165.313C412.107 164.854 411.008 164.617 409.896 164.617H293.787C291.889 164.617 290.055 165.308 288.629 166.56C287.203 167.813 286.281 169.542 286.036 171.424L278.356 230.403C278.212 231.506 278.306 232.626 278.63 233.689C278.953 234.753 279.5 235.735 280.234 236.571C280.968 237.406 281.871 238.075 282.884 238.534C283.897 238.992 284.996 239.229 286.107 239.229Z" fill="white"/>
<path d="M286.107 239.824H402.214C404.255 239.819 406.226 239.074 407.76 237.727C409.294 236.38 410.287 234.522 410.555 232.498L418.235 173.52C418.389 172.333 418.289 171.128 417.94 169.983C417.592 168.839 417.003 167.782 416.214 166.883C415.424 165.984 414.452 165.264 413.362 164.771C412.272 164.277 411.09 164.022 409.893 164.022H293.787C291.746 164.026 289.775 164.771 288.241 166.119C286.707 167.466 285.714 169.324 285.446 171.348L277.766 230.326C277.612 231.513 277.712 232.718 278.061 233.863C278.409 235.007 278.998 236.064 279.787 236.963C280.577 237.862 281.549 238.582 282.639 239.075C283.728 239.569 284.911 239.824 286.107 239.824ZM409.893 165.211C410.92 165.212 411.935 165.431 412.871 165.855C413.806 166.279 414.641 166.897 415.318 167.669C415.996 168.441 416.501 169.348 416.8 170.331C417.099 171.313 417.185 172.348 417.053 173.366L409.375 232.345C409.145 234.082 408.292 235.677 406.975 236.834C405.658 237.991 403.967 238.63 402.214 238.634H286.107C285.08 238.634 284.065 238.415 283.129 237.992C282.193 237.568 281.359 236.95 280.681 236.178C280.003 235.406 279.498 234.499 279.199 233.516C278.899 232.534 278.813 231.498 278.946 230.48L286.626 171.502C286.856 169.764 287.709 168.169 289.026 167.012C290.343 165.855 292.035 165.216 293.787 165.212L409.893 165.211Z" fill="#292A2E"/>
<path d="M195.854 252.695L197.037 252.815L171.968 500.998L170.785 500.879L195.854 252.695Z" fill="#494949"/>
<path d="M298.62 74.0733C298.62 74.0733 290.904 68.2498 288.993 54.8448C287.512 44.4661 297.087 51.19 297.087 51.19C297.087 51.19 296.093 43.7061 301.547 44.4489C307 45.1916 310.05 53.0531 310.05 53.0531" fill="#0C0C0C"/>
<path d="M329.727 45.3248C329.727 45.3248 356.782 48.2274 347.001 84.8849L344.607 85.0455L339.747 85.3714" fill="#0C0C0C"/>
<path d="M303.151 123.171C303.27 123.155 304.59 145.054 330.033 143.147C347.647 141.828 353.928 123.14 354.331 123.14C352.432 122.737 350.086 122.123 349.153 121.914C347.12 121.442 345.279 120.362 343.875 118.818C342.471 117.275 341.57 115.34 341.292 113.272C340.777 110.168 341.649 94.2854 341.382 91.1444L314.344 97.179C314.722 103.813 317.366 119.192 308.1 121.914C306.556 122.364 304.895 122.778 303.151 123.171Z" fill="#E98862"/>
<path opacity="0.52" d="M313.964 115.629C314.388 114.264 314.661 112.856 314.778 111.432C315.075 108.182 315.015 104.909 314.599 101.672C320.095 100.93 325.272 98.662 329.543 95.1251C330.045 96.9792 332.806 105.081 332.04 106.843C330.598 110.174 323.809 115.629 313.964 115.629Z" fill="#0C0C0C"/>
<path d="M319.545 111.294C330.212 110.337 342.979 103.598 343.162 89.1183L343.329 76.0535C343.513 61.5746 336.057 49.7402 322.424 49.5665C308.791 49.3935 298.452 61.0014 298.268 75.4809L298.194 81.2646C298.204 83.251 298.349 85.2344 298.628 87.2011C299.327 92.4045 300.412 100.315 303.942 105.667C307.277 110.719 312.73 111.905 319.545 111.294Z" fill="#E98862"/>
<path d="M314.596 98.0603C312.395 98.1601 310.201 97.7411 308.191 96.8371C308.15 96.8194 308.112 96.7936 308.081 96.7614C308.049 96.7291 308.024 96.6909 308.007 96.649C307.99 96.6071 307.982 96.5623 307.982 96.5171C307.983 96.4719 307.992 96.4273 308.01 96.3857C308.028 96.3442 308.053 96.3066 308.086 96.275C308.118 96.2434 308.156 96.2184 308.198 96.2016C308.24 96.1847 308.285 96.1763 308.33 96.1768C308.375 96.1773 308.42 96.1867 308.461 96.2044C312.791 98.0508 316.722 97.7802 319.83 95.4224C319.892 95.3726 319.957 95.3264 320.025 95.2838C320.103 95.2476 320.192 95.242 320.274 95.2681C320.356 95.2941 320.426 95.35 320.468 95.4246C320.511 95.4992 320.525 95.5872 320.506 95.6712C320.487 95.7553 320.438 95.8292 320.367 95.8785C320.342 95.894 320.302 95.9255 320.248 95.9689C318.614 97.213 316.646 97.9413 314.596 98.0603Z" fill="#0C0C0C"/>
<path d="M314.699 101.321C314.301 101.345 313.902 101.336 313.506 101.292C313.415 101.283 313.332 101.238 313.275 101.167C313.217 101.096 313.191 101.005 313.2 100.914C313.21 100.823 313.255 100.74 313.326 100.683C313.397 100.626 313.488 100.599 313.578 100.609C315.961 100.862 317.098 99.77 317.146 99.723C317.211 99.6585 317.298 99.6221 317.39 99.622C317.481 99.6219 317.568 99.658 317.633 99.7225C317.697 99.7869 317.734 99.8743 317.734 99.9655C317.734 100.057 317.698 100.144 317.633 100.209C316.813 100.907 315.776 101.3 314.699 101.321Z" fill="#0C0C0C"/>
<path d="M302.77 84.0489C301.843 84.0489 301.091 83.297 301.091 82.3695C301.091 81.4421 301.843 80.6902 302.77 80.6902C303.698 80.6902 304.45 81.4421 304.45 82.3695C304.45 83.297 303.698 84.0489 302.77 84.0489Z" fill="#0C0C0C"/>
<path d="M319.176 83.0194C318.248 83.0194 317.497 82.2676 317.497 81.3401C317.497 80.4126 318.248 79.6608 319.176 79.6608C320.103 79.6608 320.855 80.4126 320.855 81.3401C320.855 82.2676 320.103 83.0194 319.176 83.0194Z" fill="#0C0C0C"/>
<path d="M342.26 93.5189C346.403 93.5718 349.817 89.182 349.871 85.039C349.926 80.8959 346.595 78.5684 342.452 78.5161L340.282 81.2646L338.699 93.4737L342.26 93.5189Z" fill="#E98862"/>
<path d="M338.141 86.8615C338.141 86.8615 336.741 66.3735 330.529 65.1081C326.391 64.2655 316.357 70.1348 307.064 68.3621C302.998 67.589 299.138 68.5928 298.745 70.5136C298.59 71.2742 296.057 60.3448 302.424 52.0528C307.493 45.449 324.083 43.5848 331.631 45.7494C352.529 51.7448 343.307 79.4175 343.307 79.4175L342.375 86.481L338.141 86.8615Z" fill="#0C0C0C"/>
<path d="M312.094 93.2239H312.067C310.732 93.2102 308.495 93.039 308.504 92.0399C308.513 91.2122 310.867 82.3023 311.137 81.289C311.163 81.2048 311.22 81.1339 311.297 81.0912C311.374 81.0484 311.464 81.0371 311.549 81.0597C311.634 81.0823 311.707 81.1369 311.753 81.2121C311.799 81.2874 311.813 81.3774 311.794 81.4632C310.748 85.4094 309.19 91.4845 309.183 92.0482C309.312 92.2861 310.691 92.5311 312.074 92.5454C312.161 92.5473 312.244 92.5825 312.306 92.6439C312.368 92.7053 312.404 92.7882 312.407 92.8753C312.409 92.9625 312.378 93.0473 312.32 93.1123C312.262 93.1773 312.181 93.2175 312.094 93.2245V93.2239Z" fill="#0C0C0C"/>
<path d="M307.537 73.2628C306.134 72.8766 304.652 72.8766 303.249 73.2628C302.56 73.448 301.902 73.7359 301.299 74.1167C300.702 74.4896 300.154 74.9363 299.67 75.4464C299.577 75.5364 299.523 75.6592 299.519 75.7885C299.516 75.9178 299.563 76.0433 299.651 76.1381C299.739 76.233 299.861 76.2896 299.99 76.2959C300.119 76.3023 300.246 76.2577 300.342 76.1719L300.373 76.1457C300.822 75.7303 301.321 75.3728 301.859 75.0819C302.387 74.7927 302.956 74.585 303.546 74.4658C304.708 74.2222 305.914 74.2897 307.041 74.6615L307.089 74.6781C307.275 74.7439 307.479 74.733 307.657 74.648C307.835 74.563 307.972 74.4107 308.038 74.2247C308.104 74.0386 308.093 73.8341 308.008 73.6561C307.923 73.478 307.771 73.3411 307.585 73.2753L307.537 73.2628Z" fill="#0C0C0C"/>
<path d="M317.472 74.1066C318.54 73.5878 319.726 73.3603 320.91 73.4472C321.51 73.4862 322.102 73.6161 322.664 73.8325C323.235 74.0494 323.777 74.3371 324.276 74.6888L324.309 74.7102C324.416 74.779 324.545 74.8038 324.671 74.7794C324.796 74.7551 324.906 74.6835 324.98 74.5795C325.054 74.4756 325.085 74.3472 325.066 74.2212C325.048 74.0951 324.981 73.981 324.881 73.9027C324.332 73.4616 323.73 73.0916 323.089 72.8013C322.44 72.5049 321.75 72.3072 321.042 72.215C319.6 72.0183 318.131 72.2152 316.792 72.7847C316.611 72.8636 316.468 73.0112 316.396 73.1952C316.323 73.3792 316.327 73.5845 316.406 73.7659C316.484 73.9473 316.632 74.0899 316.816 74.1624C317 74.2349 317.205 74.2313 317.387 74.1524L317.428 74.1328L317.472 74.1066Z" fill="#0C0C0C"/>
<path d="M309.534 59.1597C306.467 58.519 304.746 54.3406 305.689 49.827C306.632 45.3134 309.882 42.1738 312.949 42.8145C316.015 43.4552 317.737 47.6336 316.794 52.1472C315.851 56.6608 312.6 59.8005 309.534 59.1597Z" fill="#0C0C0C"/>
<path d="M138.499 469.63C138.499 469.63 135.31 486.158 119.836 487.079C104.361 488 107.717 500.328 107.717 500.328H166.852V470.783L138.499 469.63Z" fill="#92A1F5"/>
<path d="M251.002 459.195C251.002 459.195 255.437 475.433 241.957 483.09C228.478 490.747 236.931 500.328 236.931 500.328L289.995 474.222L276.953 447.711L251.002 459.195Z" fill="#92A1F5"/>
<path d="M283.868 454.609L239.12 313.441H320.232C336.526 313.441 343.318 299.624 343.318 283.331C343.318 267.039 327.3 252.756 311.008 252.756H201.536C191.598 252.756 180.455 258.833 175.001 267.141C169.547 275.448 171.022 288.321 174.973 297.44L246.63 471.478" fill="#262626"/>
<path opacity="0.8" d="M283.868 454.609L239.12 313.441H320.232C336.526 313.441 343.318 299.624 343.318 283.331C343.318 267.039 327.3 252.756 311.008 252.756H201.536C191.598 252.756 180.455 258.833 175.001 267.141C169.547 275.448 171.022 288.321 174.973 297.44L246.63 471.478" fill="#0A0A0A"/>
<path d="M170.253 484.979L245.075 313.441L343.319 313.434C366.34 311.63 376.882 299.014 376.547 282.725C376.216 266.642 368.073 250.757 352.063 250.757H219.647C207.802 251 198.482 264.091 194.088 275.093L131.886 474.478" fill="#262626"/>
<path d="M383.248 250.954C383.248 250.954 387.611 279.406 380.695 295.225C372.061 314.973 339.694 313.434 339.694 313.434L341.518 250.757L383.248 250.954Z" fill="#262626"/>
<path d="M191.272 250.394L260.67 236.014C263.562 235.415 266.255 234.096 268.502 232.179C270.749 230.263 272.476 227.81 273.524 225.049L300.819 153.123C301.65 150.964 302.047 148.663 301.986 146.35C301.925 144.038 301.408 141.76 300.464 139.649C299.52 137.537 298.168 135.632 296.486 134.044C294.804 132.457 292.825 131.217 290.662 130.396C288.5 129.575 286.196 129.19 283.884 129.262C281.572 129.334 279.297 129.862 277.19 130.816C275.083 131.77 273.185 133.131 271.605 134.821C270.025 136.51 268.795 138.496 267.985 140.662L244.108 203.578L184.145 216.003C184.145 216.003 190.069 250.643 191.272 250.394Z" fill="#92A1F5"/>
<path d="M271.538 171.388C272.339 180.803 278.02 239.542 278.793 251.14H383.202C383.802 240.68 385.749 196.272 388.025 175.819C390.196 156.301 390.984 145.163 388.482 139.098C384.071 128.4 373.032 124.55 363.524 123.263C357.718 122.477 348.985 121.914 348.985 121.914C348.985 121.914 348.246 136.871 330.615 137.704C306.615 138.834 308.218 121.914 308.099 121.914C304.211 121.914 283.047 124.741 277.755 128.19C270.28 133.062 268.071 139.701 267.984 145.801C267.883 152.824 270.629 160.71 271.538 171.388Z" fill="#92A1F5"/>
<path d="M275.641 219.385H275.666C275.705 219.381 275.743 219.37 275.778 219.353C275.812 219.335 275.843 219.31 275.869 219.28C275.894 219.251 275.913 219.216 275.925 219.179C275.937 219.142 275.941 219.102 275.938 219.063L273.227 186.503C273.225 186.464 273.215 186.425 273.198 186.39C273.18 186.355 273.156 186.324 273.126 186.298C273.096 186.273 273.061 186.254 273.023 186.242C272.985 186.231 272.946 186.227 272.907 186.231C272.868 186.235 272.83 186.245 272.795 186.263C272.761 186.281 272.73 186.306 272.704 186.336C272.679 186.365 272.66 186.4 272.648 186.437C272.636 186.474 272.632 186.514 272.635 186.552L275.346 219.113C275.352 219.187 275.386 219.256 275.441 219.306C275.495 219.356 275.567 219.384 275.641 219.385Z" fill="#0C0C0C"/>
<path d="M225.916 238.926L203.007 168.504C202.604 167.266 201.82 166.188 200.768 165.423C199.715 164.658 198.447 164.247 197.145 164.247H97.8646C96.8917 164.246 95.9326 164.477 95.0657 164.919C94.1988 165.36 93.4488 166.001 92.8771 166.788C92.3053 167.575 91.9281 168.487 91.7762 169.448C91.6243 170.409 91.702 171.392 92.003 172.317L120.859 242.742C121.261 243.98 122.045 245.058 123.098 245.823C124.151 246.588 125.419 247 126.72 247H220.054C221.027 247 221.987 246.769 222.854 246.328C223.721 245.886 224.471 245.245 225.043 244.457C225.615 243.67 225.992 242.758 226.144 241.797C226.295 240.835 226.217 239.852 225.916 238.926Z" fill="#292A2E"/>
<path d="M225.916 238.926L203.007 168.504C202.604 167.266 201.82 166.188 200.768 165.423C199.715 164.658 198.447 164.247 197.145 164.247H97.8646C96.8917 164.246 95.9326 164.477 95.0657 164.919C94.1988 165.36 93.4488 166.001 92.8771 166.788C92.3053 167.575 91.9281 168.487 91.7762 169.448C91.6243 170.409 91.702 171.392 92.003 172.317L120.859 242.742C121.261 243.98 122.045 245.058 123.098 245.823C124.151 246.588 125.419 247 126.72 247H220.054C221.027 247 221.987 246.769 222.854 246.328C223.721 245.886 224.471 245.245 225.043 244.457C225.615 243.67 225.992 242.758 226.144 241.797C226.295 240.835 226.217 239.852 225.916 238.926Z" fill="#292A2E"/>
<path d="M207.228 241.287H269.706C271.262 241.287 272.524 242.549 272.524 244.105V244.178C272.524 245.735 271.262 246.997 269.706 246.997H207.228C205.671 246.997 204.409 245.735 204.409 244.178V244.105C204.409 242.549 205.671 241.287 207.228 241.287Z" fill="#292A2E"/>
<path d="M207.228 241.287H269.706C271.262 241.287 272.524 242.549 272.524 244.105V244.178C272.524 245.735 271.262 246.997 269.706 246.997H207.228C205.671 246.997 204.409 245.735 204.409 244.178V244.105C204.409 242.549 205.671 241.287 207.228 241.287Z" fill="#292A2E"/>
<path d="M161.933 218.846C156.527 218.846 152.144 214.464 152.144 209.058C152.144 203.651 156.527 199.269 161.933 199.269C167.339 199.269 171.722 203.651 171.722 209.058C171.722 214.464 167.339 218.846 161.933 218.846Z" fill="white"/>
<path d="M231.138 222.43L246.731 216.964L244.493 216.81C243.771 216.745 243.1 216.41 242.617 215.87C242.133 215.33 241.873 214.627 241.888 213.903C241.909 213.529 242.005 213.164 242.172 212.829C242.338 212.494 242.571 212.197 242.857 211.955C243.142 211.713 243.474 211.532 243.832 211.422C244.189 211.313 244.565 211.277 244.937 211.318L272.524 214.25L271.811 223.115C271.588 225.868 270.548 228.493 268.825 230.651C267.101 232.81 264.772 234.404 262.136 235.231L250.189 238.952C249.572 239.158 248.903 239.144 248.295 238.912C247.687 238.681 247.178 238.247 246.853 237.684C246.571 237.169 246.461 236.577 246.539 235.995C246.617 235.413 246.879 234.871 247.286 234.448C247.26 234.429 247.238 234.405 247.221 234.378C247.204 234.35 247.193 234.319 247.188 234.287C247.184 234.255 247.186 234.222 247.194 234.191C247.203 234.16 247.218 234.131 247.238 234.105L245.038 234.796C244.351 235.027 243.602 234.988 242.943 234.688C242.284 234.387 241.763 233.848 241.487 233.178C241.26 232.571 241.255 231.904 241.473 231.293C241.691 230.683 242.117 230.169 242.676 229.842C242.65 229.828 242.627 229.809 242.608 229.787L241.703 230.071C241.086 230.276 240.417 230.262 239.809 230.031C239.201 229.8 238.692 229.365 238.367 228.802C238.025 228.177 237.939 227.444 238.125 226.757C238.311 226.07 238.756 225.481 239.367 225.115C239.361 225.097 239.359 225.078 239.358 225.059L232.864 227.335C232.542 227.451 232.199 227.503 231.856 227.487C231.513 227.47 231.177 227.386 230.867 227.239C230.556 227.091 230.279 226.884 230.049 226.629C229.819 226.373 229.643 226.075 229.529 225.751C229.416 225.427 229.368 225.084 229.387 224.741C229.407 224.398 229.495 224.063 229.646 223.754C229.796 223.446 230.006 223.17 230.264 222.943C230.521 222.716 230.821 222.542 231.146 222.432L231.138 222.43Z" fill="#E98862"/>
<path opacity="0.2" d="M239.604 225.31C239.635 225.31 239.665 225.305 239.693 225.295L245.974 223.011C246.038 222.987 246.091 222.939 246.12 222.876C246.149 222.814 246.152 222.743 246.128 222.678C246.104 222.614 246.056 222.561 245.994 222.533C245.931 222.504 245.86 222.501 245.796 222.524L239.514 224.808C239.457 224.829 239.409 224.869 239.378 224.922C239.348 224.975 239.337 225.037 239.347 225.097C239.358 225.157 239.389 225.211 239.436 225.25C239.483 225.289 239.542 225.31 239.603 225.31H239.604Z" fill="#0A0A0A"/>
<path opacity="0.2" d="M242.781 229.877C242.81 229.877 242.839 229.872 242.867 229.862L247.818 228.105C247.851 228.095 247.881 228.077 247.907 228.055C247.933 228.032 247.954 228.005 247.969 227.974C247.985 227.943 247.994 227.909 247.996 227.875C247.998 227.84 247.993 227.806 247.981 227.773C247.97 227.741 247.952 227.711 247.929 227.685C247.905 227.66 247.877 227.639 247.846 227.625C247.815 227.61 247.781 227.602 247.746 227.601C247.712 227.6 247.678 227.605 247.645 227.618L242.694 229.374C242.637 229.395 242.588 229.435 242.558 229.487C242.527 229.54 242.515 229.602 242.526 229.662C242.536 229.722 242.567 229.777 242.614 229.816C242.66 229.855 242.72 229.877 242.781 229.877Z" fill="#0A0A0A"/>
<path opacity="0.2" d="M247.443 234.511C247.474 234.511 247.505 234.505 247.535 234.494L249.854 233.61C249.918 233.585 249.97 233.536 249.998 233.473C250.026 233.411 250.028 233.339 250.003 233.275C249.979 233.211 249.93 233.16 249.867 233.132C249.804 233.104 249.733 233.102 249.669 233.126L247.35 234.01C247.293 234.032 247.246 234.072 247.216 234.125C247.186 234.178 247.176 234.24 247.187 234.299C247.198 234.359 247.229 234.413 247.276 234.451C247.323 234.49 247.381 234.511 247.442 234.511H247.443Z" fill="#0A0A0A"/>
<path d="M260.314 209.003L325.727 208.959L350.474 148.593L387.389 164.114L356.516 235.759L356.214 236.472C354.704 239.955 352.159 242.889 348.926 244.877C345.692 246.865 341.926 247.811 338.136 247.587L259.326 242.932L260.314 209.003Z" fill="#92A1F5"/>
<path d="M339.219 247.916C342.886 247.91 346.472 246.835 349.539 244.824C352.605 242.812 355.019 239.951 356.485 236.59L356.788 235.876L383.097 174.832L382.551 174.594L355.94 236.356C354.447 239.777 351.942 242.659 348.762 244.614C345.582 246.568 341.88 247.502 338.154 247.29L259.632 242.652L260.605 209.301L325.928 209.257L344.957 162.842L344.407 162.617L325.53 208.663L260.028 208.707L259.021 243.212L259.309 243.229L338.117 247.883C338.485 247.905 338.854 247.916 339.219 247.916Z" fill="#0C0C0C"/>
<path d="M411.977 252.699L437.064 500.88L435.88 501L410.794 252.819L411.977 252.699Z" fill="#494949"/>
<path d="M308.328 252.699L333.415 500.88L332.231 501L307.145 252.818L308.328 252.699Z" fill="#494949"/>
<path d="M92.2055 252.695L93.3888 252.815L68.3193 500.998L67.136 500.879L92.2055 252.695Z" fill="#494949"/>
<path d="M69.5991 247.883H432.941C435.633 247.883 437.814 250.065 437.814 252.756C437.814 255.447 435.633 257.628 432.941 257.628H69.5991C66.908 257.628 64.7263 255.447 64.7263 252.756C64.7263 250.065 66.908 247.883 69.5991 247.883Z" fill="#292A2E"/>
<path opacity="0.8" d="M69.5991 247.883H432.941C435.633 247.883 437.814 250.065 437.814 252.756C437.814 255.447 435.633 257.628 432.941 257.628H69.5991C66.908 257.628 64.7263 255.447 64.7263 252.756C64.7263 250.065 66.908 247.883 69.5991 247.883Z" fill="white"/>
<path d="M69.5986 258.223H432.939C433.662 258.23 434.379 258.094 435.049 257.823C435.719 257.552 436.328 257.15 436.842 256.642C437.356 256.133 437.764 255.528 438.042 254.861C438.32 254.194 438.464 253.479 438.464 252.756C438.464 252.033 438.32 251.317 438.042 250.65C437.764 249.983 437.356 249.378 436.842 248.87C436.328 248.361 435.719 247.96 435.049 247.688C434.379 247.417 433.662 247.281 432.939 247.289H69.5986C68.8758 247.281 68.1588 247.417 67.4889 247.688C66.819 247.96 66.2095 248.361 65.6958 248.87C65.182 249.378 64.7742 249.983 64.4958 250.65C64.2175 251.317 64.0742 252.033 64.0742 252.756C64.0742 253.479 64.2175 254.194 64.4958 254.861C64.7742 255.528 65.182 256.133 65.6958 256.642C66.2095 257.15 66.819 257.552 67.4889 257.823C68.1588 258.094 68.8758 258.23 69.5986 258.223ZM432.939 248.478C433.505 248.471 434.067 248.577 434.592 248.789C435.117 249.001 435.594 249.315 435.997 249.713C436.399 250.111 436.719 250.585 436.937 251.107C437.155 251.629 437.268 252.19 437.268 252.756C437.268 253.322 437.155 253.882 436.937 254.404C436.719 254.927 436.399 255.401 435.997 255.799C435.594 256.196 435.117 256.51 434.592 256.722C434.067 256.934 433.505 257.04 432.939 257.033H69.5986C69.0326 257.04 68.4709 256.934 67.946 256.722C67.4212 256.51 66.9436 256.196 66.541 255.799C66.1384 255.401 65.8188 254.927 65.6006 254.404C65.3824 253.882 65.2701 253.322 65.2701 252.756C65.2701 252.19 65.3824 251.629 65.6006 251.107C65.8188 250.585 66.1384 250.111 66.541 249.713C66.9436 249.315 67.4212 249.001 67.946 248.789C68.4709 248.577 69.0326 248.471 69.5986 248.478H432.939Z" fill="#292A2E"/>
<path d="M69.5991 247.883H325.33C328.021 247.883 330.203 250.065 330.203 252.756C330.203 255.447 328.021 257.628 325.33 257.628H69.5991C66.908 257.628 64.7264 255.447 64.7264 252.756C64.7264 250.065 66.908 247.883 69.5991 247.883Z" fill="white"/>
<path d="M69.5984 258.223H325.33C326.77 258.208 328.146 257.625 329.159 256.602C330.172 255.578 330.74 254.196 330.74 252.756C330.74 251.316 330.172 249.934 329.159 248.91C328.146 247.886 326.77 247.304 325.33 247.289H69.5984C68.8757 247.281 68.1586 247.417 67.4887 247.688C66.8188 247.96 66.2094 248.361 65.6956 248.87C65.1819 249.378 64.774 249.983 64.4957 250.65C64.2173 251.317 64.074 252.033 64.074 252.756C64.074 253.479 64.2173 254.194 64.4957 254.861C64.774 255.528 65.1819 256.133 65.6956 256.642C66.2094 257.15 66.8188 257.552 67.4887 257.823C68.1586 258.094 68.8757 258.23 69.5984 258.223ZM325.33 248.478C326.456 248.491 327.531 248.948 328.323 249.749C329.114 250.549 329.558 251.63 329.558 252.756C329.558 253.882 329.114 254.962 328.323 255.763C327.531 256.564 326.456 257.02 325.33 257.033H69.5984C69.0324 257.04 68.4707 256.934 67.9459 256.722C67.421 256.51 66.9435 256.196 66.5408 255.799C66.1382 255.401 65.8186 254.927 65.6005 254.405C65.3823 253.882 65.27 253.322 65.27 252.756C65.27 252.19 65.3823 251.629 65.6005 251.107C65.8186 250.585 66.1382 250.111 66.5408 249.713C66.9435 249.315 67.421 249.001 67.9459 248.789C68.4707 248.577 69.0324 248.471 69.5984 248.478H325.33Z" fill="#292A2E"/>
<path d="M59.7985 421.879C59.8766 421.88 59.954 421.864 60.0262 421.834C60.0983 421.805 60.1638 421.761 60.2189 421.705C61.0568 420.868 62.4227 405.496 66.1013 359.727C67.6064 341 69.0283 323.311 70.066 312.561C70.1397 311.794 70.4376 311.705 70.5352 311.675C71.9558 311.247 76.2749 314.652 78.6863 317.635C78.7855 317.758 78.9293 317.836 79.0862 317.853C79.2431 317.869 79.4002 317.823 79.5229 317.724C79.6456 317.625 79.7239 317.481 79.7405 317.324C79.7571 317.167 79.7107 317.01 79.6115 316.887C78.0166 314.915 72.8193 309.746 70.1932 310.536C69.664 310.695 69.0039 311.156 68.882 312.447C67.8431 323.207 66.4213 340.9 64.9156 359.632C62.6802 387.445 60.1481 418.954 59.3156 420.938C59.2518 421.027 59.2138 421.132 59.2057 421.241C59.1976 421.35 59.2197 421.459 59.2696 421.556C59.3196 421.653 59.3953 421.735 59.4886 421.792C59.5819 421.849 59.6891 421.879 59.7985 421.879Z" fill="#494949"/>
<path d="M71.5938 332.288C61.7261 324.378 58.4555 312.066 64.2888 304.789C70.1221 297.512 82.8503 298.025 92.718 305.934C102.586 313.844 105.856 326.156 100.023 333.433C94.1898 340.71 81.4616 340.197 71.5938 332.288Z" fill="#0CBC8B"/>
<path opacity="0.2" d="M71.5938 332.288C61.7261 324.378 58.4555 312.066 64.2888 304.789C70.1221 297.512 82.8503 298.025 92.718 305.934C102.586 313.844 105.856 326.156 100.023 333.433C94.1898 340.71 81.4616 340.197 71.5938 332.288Z" fill="white"/>
<path d="M97.2565 335.284C97.3129 335.284 97.3682 335.268 97.4159 335.237C97.4635 335.207 97.5016 335.164 97.5256 335.113C97.5496 335.062 97.5586 335.005 97.5515 334.949C97.5444 334.893 97.5215 334.84 97.4854 334.797L69.3631 300.883C69.3127 300.823 69.2403 300.785 69.1617 300.777C69.0831 300.77 69.0049 300.794 68.9442 300.845C68.8835 300.895 68.8453 300.967 68.838 301.046C68.8306 301.124 68.8549 301.203 68.9052 301.263L97.0276 335.177C97.0555 335.21 97.0905 335.237 97.1301 335.256C97.1697 335.274 97.2128 335.284 97.2565 335.284Z" fill="white"/>
<path d="M53.6651 414.61C53.76 414.61 53.8535 414.587 53.9378 414.543C54.0221 414.5 54.0947 414.437 54.1497 414.359C54.2046 414.282 54.2403 414.193 54.2536 414.099C54.267 414.005 54.2576 413.909 54.2264 413.819L43.6622 383.44C43.3511 382.548 42.8211 381.747 42.1207 381.113C41.4203 380.478 40.5718 380.029 39.653 379.808C38.7342 379.586 37.7745 379.598 36.8617 379.843C35.9489 380.089 35.1122 380.559 34.4282 381.211L28.8431 386.546C28.729 386.655 28.6629 386.805 28.6593 386.963C28.6556 387.12 28.7148 387.273 28.8238 387.387C28.9328 387.501 29.0826 387.568 29.2404 387.571C29.3981 387.575 29.5509 387.516 29.665 387.407L35.2495 382.071C35.7894 381.556 36.45 381.185 37.1706 380.991C37.8913 380.798 38.649 380.788 39.3743 380.963C40.0997 381.138 40.7696 381.492 41.3225 381.993C41.8755 382.495 42.2939 383.126 42.5394 383.831L53.1025 414.211C53.1432 414.327 53.2192 414.428 53.32 414.5C53.4208 414.572 53.5415 414.61 53.6651 414.61Z" fill="#494949"/>
<path d="M13.2412 403.366C5.9283 397.577 6.36289 384.846 14.2119 374.93C22.061 365.014 34.3522 361.668 41.6651 367.456C48.978 373.245 48.5435 385.976 40.6944 395.892C32.8454 405.808 20.5542 409.154 13.2412 403.366Z" fill="#0CBC8B"/>
<path d="M64.5945 419.942C64.7281 419.942 64.8577 419.897 64.9626 419.814C65.0675 419.731 65.1414 419.616 65.1725 419.486L82.9031 345.364C83.0243 344.859 83.2825 344.397 83.6492 344.029C84.0159 343.661 84.477 343.401 84.9817 343.278C85.4864 343.156 86.0152 343.174 86.51 343.332C87.0049 343.49 87.4465 343.782 87.7864 344.175L93.2514 350.49C93.3023 350.55 93.3645 350.599 93.4345 350.635C93.5045 350.67 93.5809 350.692 93.6592 350.698C93.7375 350.704 93.8163 350.694 93.8909 350.67C93.9656 350.645 94.0346 350.606 94.094 350.555C94.1534 350.503 94.202 350.44 94.2371 350.37C94.2721 350.3 94.2928 350.223 94.2981 350.145C94.3034 350.066 94.293 349.988 94.2677 349.913C94.2424 349.839 94.2026 349.77 94.1506 349.711L88.6862 343.397C88.2029 342.838 87.575 342.424 86.8715 342.199C86.168 341.975 85.4161 341.948 84.6987 342.124C83.9812 342.299 83.326 342.668 82.805 343.192C82.284 343.715 81.9176 344.372 81.7459 345.09L64.0188 419.212C63.9831 419.365 64.0093 419.526 64.0918 419.659C64.1742 419.793 64.3062 419.889 64.4589 419.925C64.5033 419.936 64.5488 419.942 64.5945 419.942Z" fill="#494949"/>
<path d="M71.1359 366.956C68.9809 354.494 74.6841 343.104 83.8743 341.515C93.0645 339.925 102.262 348.739 104.417 361.201C106.572 373.663 100.868 385.053 91.6781 386.642C82.4879 388.232 73.2909 379.418 71.1359 366.956Z" fill="#0CBC8B"/>
<path d="M59.7979 421.879C59.8224 421.88 59.8468 421.878 59.8711 421.875C59.9486 421.866 60.0235 421.841 60.0915 421.803C60.1596 421.764 60.2193 421.713 60.2674 421.651C60.3155 421.59 60.351 421.519 60.3719 421.444C60.3928 421.368 60.3986 421.29 60.389 421.212L49.069 329.303C48.9456 328.301 48.5357 327.357 47.8885 326.583C47.2414 325.809 46.3845 325.239 45.4209 324.94C44.4573 324.642 43.428 324.628 42.4567 324.9C41.4854 325.173 40.6134 325.72 39.9456 326.476L27.0069 341.13C26.9025 341.249 26.8493 341.404 26.8591 341.561C26.869 341.719 26.9409 341.866 27.0592 341.97C27.1775 342.074 27.3324 342.128 27.4899 342.118C27.6474 342.108 27.7945 342.036 27.8989 341.918L40.8376 327.263C41.3536 326.679 42.0275 326.256 42.7782 326.045C43.5289 325.835 44.3244 325.845 45.0692 326.076C45.8139 326.307 46.4762 326.748 46.9764 327.346C47.4765 327.944 47.7933 328.674 47.8885 329.448L59.208 421.357C59.2257 421.501 59.2955 421.634 59.4041 421.73C59.5128 421.826 59.6528 421.879 59.7979 421.879Z" fill="#494949"/>
<path d="M13.7362 349.274C9.22182 341.113 14.5334 329.535 25.5998 323.413C36.6663 317.292 49.297 318.946 53.8114 327.107C58.3258 335.268 53.0142 346.846 41.9478 352.968C30.8813 359.089 18.2505 357.436 13.7362 349.274Z" fill="#0CBC8B"/>
<path opacity="0.2" d="M13.2412 403.366C5.9283 397.577 6.36289 384.846 14.2119 374.93C22.061 365.014 34.3522 361.668 41.6651 367.456C48.978 373.245 48.5435 385.976 40.6944 395.892C32.8454 405.808 20.5542 409.154 13.2412 403.366Z" fill="white"/>
<path opacity="0.5" d="M71.1359 366.956C68.9809 354.494 74.6841 343.104 83.8743 341.515C93.0645 339.925 102.262 348.739 104.417 361.201C106.572 373.663 100.868 385.053 91.6781 386.642C82.4879 388.232 73.2909 379.418 71.1359 366.956Z" fill="white"/>
<path opacity="0.5" d="M13.7362 349.274C9.22182 341.113 14.5334 329.535 25.5998 323.413C36.6663 317.292 49.297 318.946 53.8114 327.107C58.3258 335.268 53.0142 346.846 41.9478 352.968C30.8813 359.089 18.2505 357.436 13.7362 349.274Z" fill="white"/>
<path d="M45.3196 499.865H74.2774L79.0764 407.214H40.5212L45.3196 499.865Z" fill="#292A2E"/>
<path opacity="0.3" d="M45.3196 499.865H74.2774L79.0764 407.214H40.5212L45.3196 499.865Z" fill="white"/>
<path d="M13.2403 403.659C13.2852 403.659 13.3295 403.649 13.3699 403.629C13.4102 403.61 13.4456 403.581 13.4734 403.546L41.8984 367.636C41.9474 367.575 41.9698 367.496 41.9608 367.418C41.9517 367.339 41.9118 367.268 41.85 367.219C41.7882 367.17 41.7094 367.147 41.6311 367.156C41.5527 367.165 41.4812 367.205 41.4322 367.267L13.0072 403.177C12.9724 403.22 12.9507 403.273 12.9445 403.329C12.9384 403.384 12.948 403.441 12.9723 403.491C12.9967 403.541 13.0348 403.584 13.0822 403.613C13.1296 403.643 13.1844 403.659 13.2403 403.659Z" fill="white"/>
<path d="M15.6268 352.151C15.6901 352.151 15.7515 352.13 15.8022 352.092L52.1755 325.533C52.2392 325.486 52.2818 325.416 52.294 325.339C52.3061 325.261 52.2868 325.181 52.2403 325.117C52.1938 325.054 52.1238 325.011 52.0459 324.999C51.9679 324.987 51.8883 325.006 51.8246 325.052L15.4513 351.612C15.4014 351.649 15.3645 351.702 15.3459 351.761C15.3273 351.821 15.3279 351.885 15.3476 351.944C15.3674 352.003 15.4053 352.055 15.4559 352.091C15.5065 352.128 15.5673 352.147 15.6297 352.147L15.6268 352.151Z" fill="white"/>
<path d="M93.1563 386.255C93.1822 386.255 93.208 386.251 93.2329 386.244C93.309 386.224 93.3738 386.174 93.4133 386.106C93.4528 386.038 93.4636 385.957 93.4435 385.881L81.8647 342.498C81.8427 342.424 81.7927 342.361 81.7252 342.323C81.6577 342.285 81.578 342.275 81.5032 342.295C81.4284 342.315 81.3643 342.364 81.3246 342.43C81.2848 342.496 81.2725 342.576 81.2903 342.651L92.869 386.034C92.8858 386.097 92.9231 386.153 92.975 386.193C93.027 386.233 93.0907 386.255 93.1563 386.255Z" fill="white"/>
<path d="M31.3395 500.7H447.856C447.967 500.7 448.073 500.656 448.151 500.578C448.229 500.5 448.273 500.394 448.273 500.284C448.273 500.173 448.229 500.067 448.151 499.989C448.073 499.911 447.967 499.867 447.856 499.867H31.3407C31.2303 499.867 31.1245 499.911 31.0464 499.989C30.9683 500.067 30.9245 500.173 30.9245 500.284C30.9245 500.394 30.9683 500.5 31.0464 500.578C31.1245 500.656 31.2303 500.7 31.3407 500.7H31.3395Z" fill="#292A2E"/>
<g opacity="0.65">
<path d="M31.3395 500.7H447.856C447.967 500.7 448.073 500.656 448.151 500.578C448.229 500.5 448.273 500.394 448.273 500.284C448.273 500.173 448.229 500.067 448.151 499.989C448.073 499.911 447.967 499.867 447.856 499.867H31.3407C31.2303 499.867 31.1245 499.911 31.0464 499.989C30.9683 500.067 30.9245 500.173 30.9245 500.284C30.9245 500.394 30.9683 500.5 31.0464 500.578C31.1245 500.656 31.2303 500.7 31.3407 500.7H31.3395Z" fill="#292A2E"/>
</g>
</svg>
