<svg width="400" height="68" viewBox="0 0 400 68" fill="none" xmlns="http://www.w3.org/2000/svg">
<path d="M25.76 28.088C28.2773 28.5573 30.3467 29.816 31.968 31.864C33.5893 33.912 34.4 36.2587 34.4 38.904C34.4 41.2933 33.8027 43.4053 32.608 45.24C31.456 47.032 29.7707 48.44 27.552 49.464C25.3333 50.488 22.7093 51 19.68 51H0.416V6.328H18.848C21.8773 6.328 24.48 6.81867 26.656 7.8C28.8747 8.78133 30.5387 10.1467 31.648 11.896C32.8 13.6453 33.376 15.6293 33.376 17.848C33.376 20.4507 32.672 22.6267 31.264 24.376C29.8987 26.1253 28.064 27.3627 25.76 28.088ZM9.376 24.76H17.568C19.7013 24.76 21.344 24.2907 22.496 23.352C23.648 22.3707 24.224 20.984 24.224 19.192C24.224 17.4 23.648 16.0133 22.496 15.032C21.344 14.0507 19.7013 13.56 17.568 13.56H9.376V24.76ZM18.4 43.704C20.576 43.704 22.2613 43.192 23.456 42.168C24.6933 41.144 25.312 39.6933 25.312 37.816C25.312 35.896 24.672 34.4027 23.392 33.336C22.112 32.2267 20.384 31.672 18.208 31.672H9.376V43.704H18.4ZM76.439 15.032C80.663 15.032 84.0763 16.376 86.679 19.064C89.2817 21.7093 90.583 25.4213 90.583 30.2V51H81.623V31.416C81.623 28.6 80.919 26.4453 79.511 24.952C78.103 23.416 76.183 22.648 73.751 22.648C71.2763 22.648 69.3137 23.416 67.863 24.952C66.455 26.4453 65.751 28.6 65.751 31.416V51H56.791V15.544H65.751V19.96C66.9457 18.424 68.4603 17.2293 70.295 16.376C72.1723 15.48 74.2203 15.032 76.439 15.032ZM118.898 11.32C117.276 11.32 115.932 10.8293 114.866 9.848C113.842 8.824 113.33 7.56533 113.33 6.072C113.33 4.57866 113.842 3.34133 114.866 2.36C115.932 1.336 117.276 0.823997 118.898 0.823997C120.476 0.823997 121.778 1.336 122.802 2.36C123.826 3.34133 124.338 4.57866 124.338 6.072C124.338 7.56533 123.826 8.824 122.802 9.848C121.778 10.8293 120.476 11.32 118.898 11.32ZM123.314 56.824C123.314 60.7493 122.332 63.5653 120.37 65.272C118.45 67.0213 115.676 67.896 112.049 67.896H108.081V60.28H110.642C112.007 60.28 112.967 60.0027 113.522 59.448C114.076 58.936 114.354 58.0827 114.354 56.888V15.544H123.314V56.824ZM156.376 20.664C157.528 19.0427 159.107 17.6987 161.112 16.632C163.16 15.5227 165.485 14.968 168.088 14.968C171.117 14.968 173.848 15.7147 176.28 17.208C178.755 18.7013 180.696 20.8347 182.104 23.608C183.555 26.3387 184.28 29.5173 184.28 33.144C184.28 36.7707 183.555 39.992 182.104 42.808C180.696 45.5813 178.755 47.736 176.28 49.272C173.848 50.808 171.117 51.576 168.088 51.576C165.485 51.576 163.181 51.0427 161.176 49.976C159.213 48.9093 157.613 47.5653 156.376 45.944V67.896H147.416V15.544H156.376V20.664ZM175.128 33.144C175.128 31.0107 174.68 29.176 173.784 27.64C172.931 26.0613 171.779 24.8667 170.328 24.056C168.92 23.2453 167.384 22.84 165.72 22.84C164.099 22.84 162.563 23.2667 161.112 24.12C159.704 24.9307 158.552 26.1253 157.656 27.704C156.803 29.2827 156.376 31.1387 156.376 33.272C156.376 35.4053 156.803 37.2613 157.656 38.84C158.552 40.4187 159.704 41.6347 161.112 42.488C162.563 43.2987 164.099 43.704 165.72 43.704C167.384 43.704 168.92 43.2773 170.328 42.424C171.779 41.5707 172.931 40.3547 173.784 38.776C174.68 37.1973 175.128 35.32 175.128 33.144ZM203.737 33.272C203.737 29.6027 204.484 26.4027 205.977 23.672C207.47 20.8987 209.54 18.7653 212.185 17.272C214.83 15.736 217.86 14.968 221.273 14.968C225.668 14.968 229.294 16.0773 232.153 18.296C235.054 20.472 236.996 23.544 237.977 27.512H228.313C227.801 25.976 226.926 24.7813 225.689 23.928C224.494 23.032 223.001 22.584 221.209 22.584C218.649 22.584 216.622 23.5227 215.129 25.4C213.636 27.2347 212.889 29.8587 212.889 33.272C212.889 36.6427 213.636 39.2667 215.129 41.144C216.622 42.9787 218.649 43.896 221.209 43.896C224.836 43.896 227.204 42.2747 228.313 39.032H237.977C236.996 42.872 235.054 45.9227 232.153 48.184C229.252 50.4453 225.625 51.576 221.273 51.576C217.86 51.576 214.83 50.8293 212.185 49.336C209.54 47.8 207.47 45.6667 205.977 42.936C204.484 40.1627 203.737 36.9413 203.737 33.272ZM273.359 51.576C270.458 51.576 267.855 51.064 265.551 50.04C263.247 48.9733 261.412 47.544 260.047 45.752C258.724 43.96 257.999 41.976 257.871 39.8H266.895C267.066 41.1653 267.727 42.296 268.879 43.192C270.074 44.088 271.546 44.536 273.295 44.536C275.002 44.536 276.324 44.1947 277.263 43.512C278.244 42.8293 278.735 41.9547 278.735 40.888C278.735 39.736 278.138 38.8827 276.943 38.328C275.791 37.7307 273.935 37.0907 271.375 36.408C268.73 35.768 266.554 35.1067 264.847 34.424C263.183 33.7413 261.732 32.696 260.495 31.288C259.3 29.88 258.703 27.9813 258.703 25.592C258.703 23.6293 259.258 21.8373 260.367 20.216C261.519 18.5947 263.14 17.3147 265.231 16.376C267.364 15.4373 269.86 14.968 272.719 14.968C276.943 14.968 280.314 16.0347 282.831 18.168C285.348 20.2587 286.735 23.096 286.991 26.68H278.415C278.287 25.272 277.69 24.1627 276.623 23.352C275.599 22.4987 274.212 22.072 272.463 22.072C270.842 22.072 269.583 22.3707 268.687 22.968C267.834 23.5653 267.407 24.3973 267.407 25.464C267.407 26.6587 268.004 27.576 269.199 28.216C270.394 28.8133 272.25 29.432 274.767 30.072C277.327 30.712 279.439 31.3733 281.103 32.056C282.767 32.7387 284.196 33.8053 285.391 35.256C286.628 36.664 287.268 38.5413 287.311 40.888C287.311 42.936 286.735 44.7707 285.583 46.392C284.474 48.0133 282.852 49.2933 280.719 50.232C278.628 51.128 276.175 51.576 273.359 51.576ZM325.66 51.576C322.247 51.576 319.175 50.8293 316.444 49.336C313.713 47.8 311.559 45.6453 309.98 42.872C308.444 40.0987 307.676 36.8987 307.676 33.272C307.676 29.6453 308.465 26.4453 310.044 23.672C311.665 20.8987 313.863 18.7653 316.636 17.272C319.409 15.736 322.503 14.968 325.916 14.968C329.329 14.968 332.423 15.736 335.196 17.272C337.969 18.7653 340.145 20.8987 341.724 23.672C343.345 26.4453 344.156 29.6453 344.156 33.272C344.156 36.8987 343.324 40.0987 341.66 42.872C340.039 45.6453 337.82 47.8 335.004 49.336C332.231 50.8293 329.116 51.576 325.66 51.576ZM325.66 43.768C327.281 43.768 328.796 43.384 330.204 42.616C331.655 41.8053 332.807 40.6107 333.66 39.032C334.513 37.4533 334.94 35.5333 334.94 33.272C334.94 29.9013 334.044 27.32 332.252 25.528C330.503 23.6933 328.348 22.776 325.788 22.776C323.228 22.776 321.073 23.6933 319.324 25.528C317.617 27.32 316.764 29.9013 316.764 33.272C316.764 36.6427 317.596 39.2453 319.26 41.08C320.967 42.872 323.1 43.768 325.66 43.768ZM385.627 15.032C389.851 15.032 393.264 16.376 395.867 19.064C398.469 21.7093 399.771 25.4213 399.771 30.2V51H390.811V31.416C390.811 28.6 390.107 26.4453 388.699 24.952C387.291 23.416 385.371 22.648 382.939 22.648C380.464 22.648 378.501 23.416 377.051 24.952C375.643 26.4453 374.939 28.6 374.939 31.416V51H365.979V15.544H374.939V19.96C376.133 18.424 377.648 17.2293 379.483 16.376C381.36 15.48 383.408 15.032 385.627 15.032Z" fill="#3A3A3A"/>
</svg>
