<svg width="498" height="130" viewBox="0 0 498 130" fill="none" xmlns="http://www.w3.org/2000/svg">
<rect x="2.5" y="2.5" width="493" height="125" stroke="black" stroke-width="5"/>
<path d="M74.76 64.088C77.2773 64.5573 79.3467 65.816 80.968 67.864C82.5893 69.912 83.4 72.2587 83.4 74.904C83.4 77.2933 82.8027 79.4053 81.608 81.24C80.456 83.032 78.7707 84.44 76.552 85.464C74.3333 86.488 71.7093 87 68.68 87H49.416V42.328H67.848C70.8773 42.328 73.48 42.8187 75.656 43.8C77.8747 44.7813 79.5387 46.1467 80.648 47.896C81.8 49.6453 82.376 51.6293 82.376 53.848C82.376 56.4507 81.672 58.6267 80.264 60.376C78.8987 62.1253 77.064 63.3627 74.76 64.088ZM58.376 60.76H66.568C68.7013 60.76 70.344 60.2907 71.496 59.352C72.648 58.3707 73.224 56.984 73.224 55.192C73.224 53.4 72.648 52.0133 71.496 51.032C70.344 50.0507 68.7013 49.56 66.568 49.56H58.376V60.76ZM67.4 79.704C69.576 79.704 71.2613 79.192 72.456 78.168C73.6933 77.144 74.312 75.6933 74.312 73.816C74.312 71.896 73.672 70.4027 72.392 69.336C71.112 68.2267 69.384 67.672 67.208 67.672H58.376V79.704H67.4ZM125.439 51.032C129.663 51.032 133.076 52.376 135.679 55.064C138.282 57.7093 139.583 61.4213 139.583 66.2V87H130.623V67.416C130.623 64.6 129.919 62.4453 128.511 60.952C127.103 59.416 125.183 58.648 122.751 58.648C120.276 58.648 118.314 59.416 116.863 60.952C115.455 62.4453 114.751 64.6 114.751 67.416V87H105.791V51.544H114.751V55.96C115.946 54.424 117.46 53.2293 119.295 52.376C121.172 51.48 123.22 51.032 125.439 51.032ZM167.898 47.32C166.276 47.32 164.932 46.8293 163.866 45.848C162.842 44.824 162.33 43.5653 162.33 42.072C162.33 40.5787 162.842 39.3413 163.866 38.36C164.932 37.336 166.276 36.824 167.898 36.824C169.476 36.824 170.778 37.336 171.802 38.36C172.826 39.3413 173.338 40.5787 173.338 42.072C173.338 43.5653 172.826 44.824 171.802 45.848C170.778 46.8293 169.476 47.32 167.898 47.32ZM172.314 92.824C172.314 96.7493 171.332 99.5653 169.37 101.272C167.45 103.021 164.676 103.896 161.049 103.896H157.081V96.28H159.642C161.007 96.28 161.967 96.0027 162.522 95.448C163.076 94.936 163.354 94.0827 163.354 92.888V51.544H172.314V92.824ZM205.376 56.664C206.528 55.0427 208.107 53.6987 210.112 52.632C212.16 51.5227 214.485 50.968 217.088 50.968C220.117 50.968 222.848 51.7147 225.28 53.208C227.755 54.7013 229.696 56.8347 231.104 59.608C232.555 62.3387 233.28 65.5173 233.28 69.144C233.28 72.7707 232.555 75.992 231.104 78.808C229.696 81.5813 227.755 83.736 225.28 85.272C222.848 86.808 220.117 87.576 217.088 87.576C214.485 87.576 212.181 87.0427 210.176 85.976C208.213 84.9093 206.613 83.5653 205.376 81.944V103.896H196.416V51.544H205.376V56.664ZM224.128 69.144C224.128 67.0107 223.68 65.176 222.784 63.64C221.931 62.0613 220.779 60.8667 219.328 60.056C217.92 59.2453 216.384 58.84 214.72 58.84C213.099 58.84 211.563 59.2667 210.112 60.12C208.704 60.9307 207.552 62.1253 206.656 63.704C205.803 65.2827 205.376 67.1387 205.376 69.272C205.376 71.4053 205.803 73.2613 206.656 74.84C207.552 76.4187 208.704 77.6347 210.112 78.488C211.563 79.2987 213.099 79.704 214.72 79.704C216.384 79.704 217.92 79.2773 219.328 78.424C220.779 77.5707 221.931 76.3547 222.784 74.776C223.68 73.1973 224.128 71.32 224.128 69.144ZM252.737 69.272C252.737 65.6027 253.484 62.4027 254.977 59.672C256.47 56.8987 258.54 54.7653 261.185 53.272C263.83 51.736 266.86 50.968 270.273 50.968C274.668 50.968 278.294 52.0773 281.153 54.296C284.054 56.472 285.996 59.544 286.977 63.512H277.313C276.801 61.976 275.926 60.7813 274.689 59.928C273.494 59.032 272.001 58.584 270.209 58.584C267.649 58.584 265.622 59.5227 264.129 61.4C262.636 63.2347 261.889 65.8587 261.889 69.272C261.889 72.6427 262.636 75.2667 264.129 77.144C265.622 78.9787 267.649 79.896 270.209 79.896C273.836 79.896 276.204 78.2747 277.313 75.032H286.977C285.996 78.872 284.054 81.9227 281.153 84.184C278.252 86.4453 274.625 87.576 270.273 87.576C266.86 87.576 263.83 86.8293 261.185 85.336C258.54 83.8 256.47 81.6667 254.977 78.936C253.484 76.1627 252.737 72.9413 252.737 69.272ZM322.359 87.576C319.458 87.576 316.855 87.064 314.551 86.04C312.247 84.9733 310.412 83.544 309.047 81.752C307.724 79.96 306.999 77.976 306.871 75.8H315.895C316.066 77.1653 316.727 78.296 317.879 79.192C319.074 80.088 320.546 80.536 322.295 80.536C324.002 80.536 325.324 80.1947 326.263 79.512C327.244 78.8293 327.735 77.9547 327.735 76.888C327.735 75.736 327.138 74.8827 325.943 74.328C324.791 73.7307 322.935 73.0907 320.375 72.408C317.73 71.768 315.554 71.1067 313.847 70.424C312.183 69.7413 310.732 68.696 309.495 67.288C308.3 65.88 307.703 63.9813 307.703 61.592C307.703 59.6293 308.258 57.8373 309.367 56.216C310.519 54.5947 312.14 53.3147 314.231 52.376C316.364 51.4373 318.86 50.968 321.719 50.968C325.943 50.968 329.314 52.0347 331.831 54.168C334.348 56.2587 335.735 59.096 335.991 62.68H327.415C327.287 61.272 326.69 60.1627 325.623 59.352C324.599 58.4987 323.212 58.072 321.463 58.072C319.842 58.072 318.583 58.3707 317.687 58.968C316.834 59.5653 316.407 60.3973 316.407 61.464C316.407 62.6587 317.004 63.576 318.199 64.216C319.394 64.8133 321.25 65.432 323.767 66.072C326.327 66.712 328.439 67.3733 330.103 68.056C331.767 68.7387 333.196 69.8053 334.391 71.256C335.628 72.664 336.268 74.5413 336.311 76.888C336.311 78.936 335.735 80.7707 334.583 82.392C333.474 84.0133 331.852 85.2933 329.719 86.232C327.628 87.128 325.175 87.576 322.359 87.576ZM374.66 87.576C371.247 87.576 368.175 86.8293 365.444 85.336C362.713 83.8 360.559 81.6453 358.98 78.872C357.444 76.0987 356.676 72.8987 356.676 69.272C356.676 65.6453 357.465 62.4453 359.044 59.672C360.665 56.8987 362.863 54.7653 365.636 53.272C368.409 51.736 371.503 50.968 374.916 50.968C378.329 50.968 381.423 51.736 384.196 53.272C386.969 54.7653 389.145 56.8987 390.724 59.672C392.345 62.4453 393.156 65.6453 393.156 69.272C393.156 72.8987 392.324 76.0987 390.66 78.872C389.039 81.6453 386.82 83.8 384.004 85.336C381.231 86.8293 378.116 87.576 374.66 87.576ZM374.66 79.768C376.281 79.768 377.796 79.384 379.204 78.616C380.655 77.8053 381.807 76.6107 382.66 75.032C383.513 73.4533 383.94 71.5333 383.94 69.272C383.94 65.9013 383.044 63.32 381.252 61.528C379.503 59.6933 377.348 58.776 374.788 58.776C372.228 58.776 370.073 59.6933 368.324 61.528C366.617 63.32 365.764 65.9013 365.764 69.272C365.764 72.6427 366.596 75.2453 368.26 77.08C369.967 78.872 372.1 79.768 374.66 79.768ZM434.627 51.032C438.851 51.032 442.264 52.376 444.867 55.064C447.469 57.7093 448.771 61.4213 448.771 66.2V87H439.811V67.416C439.811 64.6 439.107 62.4453 437.699 60.952C436.291 59.416 434.371 58.648 431.939 58.648C429.464 58.648 427.501 59.416 426.051 60.952C424.643 62.4453 423.939 64.6 423.939 67.416V87H414.979V51.544H423.939V55.96C425.133 54.424 426.648 53.2293 428.483 52.376C430.36 51.48 432.408 51.032 434.627 51.032Z" fill="black"/>
</svg>
